<?xml version="1.0" encoding="utf-8" standalone="no"?>
<!DOCTYPE svg PUBLIC "-//W3C//DTD SVG 1.1//EN"
  "http://www.w3.org/Graphics/SVG/1.1/DTD/svg11.dtd">
<svg xmlns:xlink="http://www.w3.org/1999/xlink" width="432pt" height="288pt" viewBox="0 0 432 288" xmlns="http://www.w3.org/2000/svg" version="1.1">
 <metadata>
  <rdf:RDF xmlns:dc="http://purl.org/dc/elements/1.1/" xmlns:cc="http://creativecommons.org/ns#" xmlns:rdf="http://www.w3.org/1999/02/22-rdf-syntax-ns#">
   <cc:Work>
    <dc:type rdf:resource="http://purl.org/dc/dcmitype/StillImage"/>
    <dc:date>2024-07-15T10:42:48.584635</dc:date>
    <dc:format>image/svg+xml</dc:format>
    <dc:creator>
     <cc:Agent>
      <dc:title>Matplotlib v3.6.2, https://matplotlib.org/</dc:title>
     </cc:Agent>
    </dc:creator>
   </cc:Work>
  </rdf:RDF>
 </metadata>
 <defs>
  <style type="text/css">*{stroke-linejoin: round; stroke-linecap: butt}</style>
 </defs>
 <g id="figure_1">
  <g id="patch_1">
   <path d="M 0 288 
L 432 288 
L 432 0 
L 0 0 
z
" style="fill: #ffffff"/>
  </g>
  <g id="axes_1">
   <g id="patch_2">
    <path d="M 54 252 
L 388.8 252 
L 388.8 34.56 
L 54 34.56 
z
" style="fill: #eaeaf2"/>
   </g>
   <g id="matplotlib.axis_1">
    <g id="xtick_1">
     <g id="text_1">
      <!-- 50 -->
      <g style="fill: #262626" transform="translate(152.619867 269.373594) scale(0.11 -0.11)">
       <defs>
        <path id="ArialMT-35" d="M 266 1200 
L 856 1250 
Q 922 819 1161 601 
Q 1400 384 1738 384 
Q 2144 384 2425 690 
Q 2706 997 2706 1503 
Q 2706 1984 2436 2262 
Q 2166 2541 1728 2541 
Q 1456 2541 1237 2417 
Q 1019 2294 894 2097 
L 366 2166 
L 809 4519 
L 3088 4519 
L 3088 3981 
L 1259 3981 
L 1013 2750 
Q 1425 3038 1878 3038 
Q 2478 3038 2890 2622 
Q 3303 2206 3303 1553 
Q 3303 931 2941 478 
Q 2500 -78 1738 -78 
Q 1113 -78 717 272 
Q 322 622 266 1200 
z
" transform="scale(0.015625)"/>
        <path id="ArialMT-30" d="M 266 2259 
Q 266 3072 433 3567 
Q 600 4063 929 4331 
Q 1259 4600 1759 4600 
Q 2128 4600 2406 4451 
Q 2684 4303 2865 4023 
Q 3047 3744 3150 3342 
Q 3253 2941 3253 2259 
Q 3253 1453 3087 958 
Q 2922 463 2592 192 
Q 2263 -78 1759 -78 
Q 1097 -78 719 397 
Q 266 969 266 2259 
z
M 844 2259 
Q 844 1131 1108 757 
Q 1372 384 1759 384 
Q 2147 384 2411 759 
Q 2675 1134 2675 2259 
Q 2675 3391 2411 3762 
Q 2147 4134 1753 4134 
Q 1366 4134 1134 3806 
Q 844 3388 844 2259 
z
" transform="scale(0.015625)"/>
       </defs>
       <use xlink:href="#ArialMT-35"/>
       <use xlink:href="#ArialMT-30" x="55.615234"/>
      </g>
     </g>
    </g>
    <g id="xtick_2">
     <g id="text_2">
      <!-- 80 -->
      <g style="fill: #262626" transform="translate(206.331097 269.373594) scale(0.11 -0.11)">
       <defs>
        <path id="ArialMT-38" d="M 1131 2484 
Q 781 2613 612 2850 
Q 444 3088 444 3419 
Q 444 3919 803 4259 
Q 1163 4600 1759 4600 
Q 2359 4600 2725 4251 
Q 3091 3903 3091 3403 
Q 3091 3084 2923 2848 
Q 2756 2613 2416 2484 
Q 2838 2347 3058 2040 
Q 3278 1734 3278 1309 
Q 3278 722 2862 322 
Q 2447 -78 1769 -78 
Q 1091 -78 675 323 
Q 259 725 259 1325 
Q 259 1772 486 2073 
Q 713 2375 1131 2484 
z
M 1019 3438 
Q 1019 3113 1228 2906 
Q 1438 2700 1772 2700 
Q 2097 2700 2305 2904 
Q 2513 3109 2513 3406 
Q 2513 3716 2298 3927 
Q 2084 4138 1766 4138 
Q 1444 4138 1231 3931 
Q 1019 3725 1019 3438 
z
M 838 1322 
Q 838 1081 952 856 
Q 1066 631 1291 507 
Q 1516 384 1775 384 
Q 2178 384 2440 643 
Q 2703 903 2703 1303 
Q 2703 1709 2433 1975 
Q 2163 2241 1756 2241 
Q 1359 2241 1098 1978 
Q 838 1716 838 1322 
z
" transform="scale(0.015625)"/>
       </defs>
       <use xlink:href="#ArialMT-38"/>
       <use xlink:href="#ArialMT-30" x="55.615234"/>
      </g>
     </g>
    </g>
    <g id="xtick_3">
     <g id="text_3">
      <!-- 110 -->
      <g style="fill: #262626" transform="translate(257.389436 269.373594) scale(0.11 -0.11)">
       <defs>
        <path id="ArialMT-31" d="M 2384 0 
L 1822 0 
L 1822 3584 
Q 1619 3391 1289 3197 
Q 959 3003 697 2906 
L 697 3450 
Q 1169 3672 1522 3987 
Q 1875 4303 2022 4600 
L 2384 4600 
L 2384 0 
z
" transform="scale(0.015625)"/>
       </defs>
       <use xlink:href="#ArialMT-31"/>
       <use xlink:href="#ArialMT-31" x="48.240234"/>
       <use xlink:href="#ArialMT-30" x="103.855469"/>
      </g>
     </g>
    </g>
    <g id="xtick_4">
     <g id="text_4">
      <!-- 140 -->
      <g style="fill: #262626" transform="translate(310.695041 269.373594) scale(0.11 -0.11)">
       <defs>
        <path id="ArialMT-34" d="M 2069 0 
L 2069 1097 
L 81 1097 
L 81 1613 
L 2172 4581 
L 2631 4581 
L 2631 1613 
L 3250 1613 
L 3250 1097 
L 2631 1097 
L 2631 0 
L 2069 0 
z
M 2069 1613 
L 2069 3678 
L 634 1613 
L 2069 1613 
z
" transform="scale(0.015625)"/>
       </defs>
       <use xlink:href="#ArialMT-31"/>
       <use xlink:href="#ArialMT-34" x="55.615234"/>
       <use xlink:href="#ArialMT-30" x="111.230469"/>
      </g>
     </g>
    </g>
    <g id="xtick_5">
     <g id="text_5">
      <!-- 170 -->
      <g style="fill: #262626" transform="translate(364.406271 269.373594) scale(0.11 -0.11)">
       <defs>
        <path id="ArialMT-37" d="M 303 3981 
L 303 4522 
L 3269 4522 
L 3269 4084 
Q 2831 3619 2401 2847 
Q 1972 2075 1738 1259 
Q 1569 684 1522 0 
L 944 0 
Q 953 541 1156 1306 
Q 1359 2072 1739 2783 
Q 2119 3494 2547 3981 
L 303 3981 
z
" transform="scale(0.015625)"/>
       </defs>
       <use xlink:href="#ArialMT-31"/>
       <use xlink:href="#ArialMT-37" x="55.615234"/>
       <use xlink:href="#ArialMT-30" x="111.230469"/>
      </g>
     </g>
    </g>
    <g id="text_6">
     <!-- Time (days) -->
     <g style="fill: #262626" transform="translate(189.957188 284.295469) scale(0.12 -0.12)">
      <defs>
       <path id="ArialMT-54" d="M 1659 0 
L 1659 4041 
L 150 4041 
L 150 4581 
L 3781 4581 
L 3781 4041 
L 2266 4041 
L 2266 0 
L 1659 0 
z
" transform="scale(0.015625)"/>
       <path id="ArialMT-69" d="M 425 3934 
L 425 4581 
L 988 4581 
L 988 3934 
L 425 3934 
z
M 425 0 
L 425 3319 
L 988 3319 
L 988 0 
L 425 0 
z
" transform="scale(0.015625)"/>
       <path id="ArialMT-6d" d="M 422 0 
L 422 3319 
L 925 3319 
L 925 2853 
Q 1081 3097 1340 3245 
Q 1600 3394 1931 3394 
Q 2300 3394 2536 3241 
Q 2772 3088 2869 2813 
Q 3263 3394 3894 3394 
Q 4388 3394 4653 3120 
Q 4919 2847 4919 2278 
L 4919 0 
L 4359 0 
L 4359 2091 
Q 4359 2428 4304 2576 
Q 4250 2725 4106 2815 
Q 3963 2906 3769 2906 
Q 3419 2906 3187 2673 
Q 2956 2441 2956 1928 
L 2956 0 
L 2394 0 
L 2394 2156 
Q 2394 2531 2256 2718 
Q 2119 2906 1806 2906 
Q 1569 2906 1367 2781 
Q 1166 2656 1075 2415 
Q 984 2175 984 1722 
L 984 0 
L 422 0 
z
" transform="scale(0.015625)"/>
       <path id="ArialMT-65" d="M 2694 1069 
L 3275 997 
Q 3138 488 2766 206 
Q 2394 -75 1816 -75 
Q 1088 -75 661 373 
Q 234 822 234 1631 
Q 234 2469 665 2931 
Q 1097 3394 1784 3394 
Q 2450 3394 2872 2941 
Q 3294 2488 3294 1666 
Q 3294 1616 3291 1516 
L 816 1516 
Q 847 969 1125 678 
Q 1403 388 1819 388 
Q 2128 388 2347 550 
Q 2566 713 2694 1069 
z
M 847 1978 
L 2700 1978 
Q 2663 2397 2488 2606 
Q 2219 2931 1791 2931 
Q 1403 2931 1139 2672 
Q 875 2413 847 1978 
z
" transform="scale(0.015625)"/>
       <path id="ArialMT-20" transform="scale(0.015625)"/>
       <path id="ArialMT-28" d="M 1497 -1347 
Q 1031 -759 709 28 
Q 388 816 388 1659 
Q 388 2403 628 3084 
Q 909 3875 1497 4659 
L 1900 4659 
Q 1522 4009 1400 3731 
Q 1209 3300 1100 2831 
Q 966 2247 966 1656 
Q 966 153 1900 -1347 
L 1497 -1347 
z
" transform="scale(0.015625)"/>
       <path id="ArialMT-64" d="M 2575 0 
L 2575 419 
Q 2259 -75 1647 -75 
Q 1250 -75 917 144 
Q 584 363 401 755 
Q 219 1147 219 1656 
Q 219 2153 384 2558 
Q 550 2963 881 3178 
Q 1213 3394 1622 3394 
Q 1922 3394 2156 3267 
Q 2391 3141 2538 2938 
L 2538 4581 
L 3097 4581 
L 3097 0 
L 2575 0 
z
M 797 1656 
Q 797 1019 1065 703 
Q 1334 388 1700 388 
Q 2069 388 2326 689 
Q 2584 991 2584 1609 
Q 2584 2291 2321 2609 
Q 2059 2928 1675 2928 
Q 1300 2928 1048 2622 
Q 797 2316 797 1656 
z
" transform="scale(0.015625)"/>
       <path id="ArialMT-61" d="M 2588 409 
Q 2275 144 1986 34 
Q 1697 -75 1366 -75 
Q 819 -75 525 192 
Q 231 459 231 875 
Q 231 1119 342 1320 
Q 453 1522 633 1644 
Q 813 1766 1038 1828 
Q 1203 1872 1538 1913 
Q 2219 1994 2541 2106 
Q 2544 2222 2544 2253 
Q 2544 2597 2384 2738 
Q 2169 2928 1744 2928 
Q 1347 2928 1158 2789 
Q 969 2650 878 2297 
L 328 2372 
Q 403 2725 575 2942 
Q 747 3159 1072 3276 
Q 1397 3394 1825 3394 
Q 2250 3394 2515 3294 
Q 2781 3194 2906 3042 
Q 3031 2891 3081 2659 
Q 3109 2516 3109 2141 
L 3109 1391 
Q 3109 606 3145 398 
Q 3181 191 3288 0 
L 2700 0 
Q 2613 175 2588 409 
z
M 2541 1666 
Q 2234 1541 1622 1453 
Q 1275 1403 1131 1340 
Q 988 1278 909 1158 
Q 831 1038 831 891 
Q 831 666 1001 516 
Q 1172 366 1500 366 
Q 1825 366 2078 508 
Q 2331 650 2450 897 
Q 2541 1088 2541 1459 
L 2541 1666 
z
" transform="scale(0.015625)"/>
       <path id="ArialMT-79" d="M 397 -1278 
L 334 -750 
Q 519 -800 656 -800 
Q 844 -800 956 -737 
Q 1069 -675 1141 -563 
Q 1194 -478 1313 -144 
Q 1328 -97 1363 -6 
L 103 3319 
L 709 3319 
L 1400 1397 
Q 1534 1031 1641 628 
Q 1738 1016 1872 1384 
L 2581 3319 
L 3144 3319 
L 1881 -56 
Q 1678 -603 1566 -809 
Q 1416 -1088 1222 -1217 
Q 1028 -1347 759 -1347 
Q 597 -1347 397 -1278 
z
" transform="scale(0.015625)"/>
       <path id="ArialMT-73" d="M 197 991 
L 753 1078 
Q 800 744 1014 566 
Q 1228 388 1613 388 
Q 2000 388 2187 545 
Q 2375 703 2375 916 
Q 2375 1106 2209 1216 
Q 2094 1291 1634 1406 
Q 1016 1563 777 1677 
Q 538 1791 414 1992 
Q 291 2194 291 2438 
Q 291 2659 392 2848 
Q 494 3038 669 3163 
Q 800 3259 1026 3326 
Q 1253 3394 1513 3394 
Q 1903 3394 2198 3281 
Q 2494 3169 2634 2976 
Q 2775 2784 2828 2463 
L 2278 2388 
Q 2241 2644 2061 2787 
Q 1881 2931 1553 2931 
Q 1166 2931 1000 2803 
Q 834 2675 834 2503 
Q 834 2394 903 2306 
Q 972 2216 1119 2156 
Q 1203 2125 1616 2013 
Q 2213 1853 2448 1751 
Q 2684 1650 2818 1456 
Q 2953 1263 2953 975 
Q 2953 694 2789 445 
Q 2625 197 2315 61 
Q 2006 -75 1616 -75 
Q 969 -75 630 194 
Q 291 463 197 991 
z
" transform="scale(0.015625)"/>
       <path id="ArialMT-29" d="M 791 -1347 
L 388 -1347 
Q 1322 153 1322 1656 
Q 1322 2244 1188 2822 
Q 1081 3291 891 3722 
Q 769 4003 388 4659 
L 791 4659 
Q 1378 3875 1659 3084 
Q 1900 2403 1900 1659 
Q 1900 816 1576 28 
Q 1253 -759 791 -1347 
z
" transform="scale(0.015625)"/>
      </defs>
      <use xlink:href="#ArialMT-54"/>
      <use xlink:href="#ArialMT-69" x="57.333984"/>
      <use xlink:href="#ArialMT-6d" x="79.550781"/>
      <use xlink:href="#ArialMT-65" x="162.851562"/>
      <use xlink:href="#ArialMT-20" x="218.466797"/>
      <use xlink:href="#ArialMT-28" x="246.25"/>
      <use xlink:href="#ArialMT-64" x="279.550781"/>
      <use xlink:href="#ArialMT-61" x="335.166016"/>
      <use xlink:href="#ArialMT-79" x="390.78125"/>
      <use xlink:href="#ArialMT-73" x="440.78125"/>
      <use xlink:href="#ArialMT-29" x="490.78125"/>
     </g>
    </g>
   </g>
   <g id="matplotlib.axis_2">
    <g id="ytick_1">
     <g id="line2d_1">
      <defs>
       <path id="m020fd235e6" d="M 0 0 
L -6 0 
" style="stroke: #d62728; stroke-width: 1.25"/>
      </defs>
      <g>
       <use xlink:href="#m020fd235e6" x="54" y="252" style="fill: #d62728; stroke: #d62728; stroke-width: 1.25"/>
      </g>
     </g>
     <g id="text_7">
      <!-- 0 -->
      <g style="fill: #d62728" transform="translate(38.382969 255.936797) scale(0.11 -0.11)">
       <use xlink:href="#ArialMT-30"/>
      </g>
     </g>
    </g>
    <g id="ytick_2">
     <g id="line2d_2">
      <g>
       <use xlink:href="#m020fd235e6" x="54" y="203.893805" style="fill: #d62728; stroke: #d62728; stroke-width: 1.25"/>
      </g>
     </g>
     <g id="text_8">
      <!-- 200 -->
      <g style="fill: #d62728" transform="translate(26.148906 207.830602) scale(0.11 -0.11)">
       <defs>
        <path id="ArialMT-32" d="M 3222 541 
L 3222 0 
L 194 0 
Q 188 203 259 391 
Q 375 700 629 1000 
Q 884 1300 1366 1694 
Q 2113 2306 2375 2664 
Q 2638 3022 2638 3341 
Q 2638 3675 2398 3904 
Q 2159 4134 1775 4134 
Q 1369 4134 1125 3890 
Q 881 3647 878 3216 
L 300 3275 
Q 359 3922 746 4261 
Q 1134 4600 1788 4600 
Q 2447 4600 2831 4234 
Q 3216 3869 3216 3328 
Q 3216 3053 3103 2787 
Q 2991 2522 2730 2228 
Q 2469 1934 1863 1422 
Q 1356 997 1212 845 
Q 1069 694 975 541 
L 3222 541 
z
" transform="scale(0.015625)"/>
       </defs>
       <use xlink:href="#ArialMT-32"/>
       <use xlink:href="#ArialMT-30" x="55.615234"/>
       <use xlink:href="#ArialMT-30" x="111.230469"/>
      </g>
     </g>
    </g>
    <g id="ytick_3">
     <g id="line2d_3">
      <g>
       <use xlink:href="#m020fd235e6" x="54" y="155.787611" style="fill: #d62728; stroke: #d62728; stroke-width: 1.25"/>
      </g>
     </g>
     <g id="text_9">
      <!-- 400 -->
      <g style="fill: #d62728" transform="translate(26.148906 159.724407) scale(0.11 -0.11)">
       <use xlink:href="#ArialMT-34"/>
       <use xlink:href="#ArialMT-30" x="55.615234"/>
       <use xlink:href="#ArialMT-30" x="111.230469"/>
      </g>
     </g>
    </g>
    <g id="ytick_4">
     <g id="line2d_4">
      <g>
       <use xlink:href="#m020fd235e6" x="54" y="107.681416" style="fill: #d62728; stroke: #d62728; stroke-width: 1.25"/>
      </g>
     </g>
     <g id="text_10">
      <!-- 600 -->
      <g style="fill: #d62728" transform="translate(26.148906 111.618213) scale(0.11 -0.11)">
       <defs>
        <path id="ArialMT-36" d="M 3184 3459 
L 2625 3416 
Q 2550 3747 2413 3897 
Q 2184 4138 1850 4138 
Q 1581 4138 1378 3988 
Q 1113 3794 959 3422 
Q 806 3050 800 2363 
Q 1003 2672 1297 2822 
Q 1591 2972 1913 2972 
Q 2475 2972 2870 2558 
Q 3266 2144 3266 1488 
Q 3266 1056 3080 686 
Q 2894 316 2569 119 
Q 2244 -78 1831 -78 
Q 1128 -78 684 439 
Q 241 956 241 2144 
Q 241 3472 731 4075 
Q 1159 4600 1884 4600 
Q 2425 4600 2770 4297 
Q 3116 3994 3184 3459 
z
M 888 1484 
Q 888 1194 1011 928 
Q 1134 663 1356 523 
Q 1578 384 1822 384 
Q 2178 384 2434 671 
Q 2691 959 2691 1453 
Q 2691 1928 2437 2201 
Q 2184 2475 1800 2475 
Q 1419 2475 1153 2201 
Q 888 1928 888 1484 
z
" transform="scale(0.015625)"/>
       </defs>
       <use xlink:href="#ArialMT-36"/>
       <use xlink:href="#ArialMT-30" x="55.615234"/>
       <use xlink:href="#ArialMT-30" x="111.230469"/>
      </g>
     </g>
    </g>
    <g id="ytick_5">
     <g id="line2d_5">
      <g>
       <use xlink:href="#m020fd235e6" x="54" y="59.575221" style="fill: #d62728; stroke: #d62728; stroke-width: 1.25"/>
      </g>
     </g>
     <g id="text_11">
      <!-- 800 -->
      <g style="fill: #d62728" transform="translate(26.148906 63.512018) scale(0.11 -0.11)">
       <use xlink:href="#ArialMT-38"/>
       <use xlink:href="#ArialMT-30" x="55.615234"/>
       <use xlink:href="#ArialMT-30" x="111.230469"/>
      </g>
     </g>
    </g>
    <g id="text_12">
     <!-- Total mites in hive -->
     <g style="fill: #d62728" transform="translate(19.763906 190.96125) rotate(-90) scale(0.12 -0.12)">
      <defs>
       <path id="ArialMT-6f" d="M 213 1659 
Q 213 2581 725 3025 
Q 1153 3394 1769 3394 
Q 2453 3394 2887 2945 
Q 3322 2497 3322 1706 
Q 3322 1066 3130 698 
Q 2938 331 2570 128 
Q 2203 -75 1769 -75 
Q 1072 -75 642 372 
Q 213 819 213 1659 
z
M 791 1659 
Q 791 1022 1069 705 
Q 1347 388 1769 388 
Q 2188 388 2466 706 
Q 2744 1025 2744 1678 
Q 2744 2294 2464 2611 
Q 2184 2928 1769 2928 
Q 1347 2928 1069 2612 
Q 791 2297 791 1659 
z
" transform="scale(0.015625)"/>
       <path id="ArialMT-74" d="M 1650 503 
L 1731 6 
Q 1494 -44 1306 -44 
Q 1000 -44 831 53 
Q 663 150 594 308 
Q 525 466 525 972 
L 525 2881 
L 113 2881 
L 113 3319 
L 525 3319 
L 525 4141 
L 1084 4478 
L 1084 3319 
L 1650 3319 
L 1650 2881 
L 1084 2881 
L 1084 941 
Q 1084 700 1114 631 
Q 1144 563 1211 522 
Q 1278 481 1403 481 
Q 1497 481 1650 503 
z
" transform="scale(0.015625)"/>
       <path id="ArialMT-6c" d="M 409 0 
L 409 4581 
L 972 4581 
L 972 0 
L 409 0 
z
" transform="scale(0.015625)"/>
       <path id="ArialMT-6e" d="M 422 0 
L 422 3319 
L 928 3319 
L 928 2847 
Q 1294 3394 1984 3394 
Q 2284 3394 2536 3286 
Q 2788 3178 2913 3003 
Q 3038 2828 3088 2588 
Q 3119 2431 3119 2041 
L 3119 0 
L 2556 0 
L 2556 2019 
Q 2556 2363 2490 2533 
Q 2425 2703 2258 2804 
Q 2091 2906 1866 2906 
Q 1506 2906 1245 2678 
Q 984 2450 984 1813 
L 984 0 
L 422 0 
z
" transform="scale(0.015625)"/>
       <path id="ArialMT-68" d="M 422 0 
L 422 4581 
L 984 4581 
L 984 2938 
Q 1378 3394 1978 3394 
Q 2347 3394 2619 3248 
Q 2891 3103 3008 2847 
Q 3125 2591 3125 2103 
L 3125 0 
L 2563 0 
L 2563 2103 
Q 2563 2525 2380 2717 
Q 2197 2909 1863 2909 
Q 1613 2909 1392 2779 
Q 1172 2650 1078 2428 
Q 984 2206 984 1816 
L 984 0 
L 422 0 
z
" transform="scale(0.015625)"/>
       <path id="ArialMT-76" d="M 1344 0 
L 81 3319 
L 675 3319 
L 1388 1331 
Q 1503 1009 1600 663 
Q 1675 925 1809 1294 
L 2547 3319 
L 3125 3319 
L 1869 0 
L 1344 0 
z
" transform="scale(0.015625)"/>
      </defs>
      <use xlink:href="#ArialMT-54"/>
      <use xlink:href="#ArialMT-6f" x="49.958984"/>
      <use xlink:href="#ArialMT-74" x="105.574219"/>
      <use xlink:href="#ArialMT-61" x="133.357422"/>
      <use xlink:href="#ArialMT-6c" x="188.972656"/>
      <use xlink:href="#ArialMT-20" x="211.189453"/>
      <use xlink:href="#ArialMT-6d" x="238.972656"/>
      <use xlink:href="#ArialMT-69" x="322.273438"/>
      <use xlink:href="#ArialMT-74" x="344.490234"/>
      <use xlink:href="#ArialMT-65" x="372.273438"/>
      <use xlink:href="#ArialMT-73" x="427.888672"/>
      <use xlink:href="#ArialMT-20" x="477.888672"/>
      <use xlink:href="#ArialMT-69" x="505.671875"/>
      <use xlink:href="#ArialMT-6e" x="527.888672"/>
      <use xlink:href="#ArialMT-20" x="583.503906"/>
      <use xlink:href="#ArialMT-68" x="611.287109"/>
      <use xlink:href="#ArialMT-69" x="666.902344"/>
      <use xlink:href="#ArialMT-76" x="689.119141"/>
      <use xlink:href="#ArialMT-65" x="739.119141"/>
     </g>
    </g>
   </g>
   <g id="PolyCollection_1">
    <defs>
     <path id="m81f3b95fd8" d="M 69.218182 -36 
L 69.218182 -36.481062 
L 71.008556 -36.481062 
L 72.79893 -36.240531 
L 74.589305 -36 
L 76.379679 -36 
L 78.170053 -36 
L 79.960428 -36 
L 81.750802 -36 
L 83.541176 -36 
L 85.331551 -36 
L 87.121925 -36 
L 88.912299 -36 
L 90.702674 -36 
L 92.493048 -36 
L 94.283422 -36 
L 96.073797 -36 
L 97.864171 -36 
L 99.654545 -36.721593 
L 101.44492 -37.202655 
L 103.235294 -37.202655 
L 105.025668 -37.202655 
L 106.816043 -36.962124 
L 108.606417 -36.962124 
L 110.396791 -36.962124 
L 112.187166 -36.962124 
L 113.97754 -36.962124 
L 115.767914 -36.962124 
L 117.558289 -36.962124 
L 119.348663 -36.962124 
L 121.139037 -36.962124 
L 122.929412 -36.962124 
L 124.719786 -36.962124 
L 126.51016 -36.962124 
L 128.300535 -36.962124 
L 130.090909 -36.962124 
L 131.881283 -36.481062 
L 133.671658 -36.721593 
L 135.462032 -36.721593 
L 137.252406 -36.721593 
L 139.042781 -36.721593 
L 140.833155 -36.481062 
L 142.623529 -36.481062 
L 144.413904 -36.481062 
L 146.204278 -36.481062 
L 147.994652 -36.481062 
L 149.785027 -36.481062 
L 151.575401 -36.481062 
L 153.365775 -36.481062 
L 155.15615 -36.481062 
L 156.946524 -36.481062 
L 158.736898 -37.924248 
L 160.527273 -39.367434 
L 162.317647 -39.367434 
L 164.108021 -39.367434 
L 165.898396 -38.40531 
L 167.68877 -38.40531 
L 169.479144 -38.40531 
L 171.269519 -38.40531 
L 173.059893 -38.40531 
L 174.850267 -38.40531 
L 176.640642 -38.40531 
L 178.431016 -38.40531 
L 180.22139 -38.40531 
L 182.011765 -38.40531 
L 183.802139 -38.40531 
L 185.592513 -38.40531 
L 187.382888 -38.40531 
L 189.173262 -38.40531 
L 190.963636 -37.443186 
L 192.754011 -39.367434 
L 194.544385 -40.810619 
L 196.334759 -40.570088 
L 198.125134 -40.570088 
L 199.915508 -39.126903 
L 201.705882 -38.645841 
L 203.496257 -38.645841 
L 205.286631 -38.645841 
L 207.077005 -38.645841 
L 208.86738 -38.645841 
L 210.657754 -38.645841 
L 212.448128 -38.645841 
L 214.238503 -38.645841 
L 216.028877 -38.645841 
L 217.819251 -41.532212 
L 219.609626 -44.418584 
L 221.4 -44.418584 
L 223.190374 -44.418584 
L 224.980749 -41.772743 
L 226.771123 -43.696991 
L 228.561497 -44.659115 
L 230.351872 -44.659115 
L 232.142246 -44.659115 
L 233.93262 -43.696991 
L 235.722995 -43.696991 
L 237.513369 -43.45646 
L 239.303743 -43.45646 
L 241.094118 -43.45646 
L 242.884492 -43.45646 
L 244.674866 -43.45646 
L 246.465241 -43.45646 
L 248.255615 -43.45646 
L 250.045989 -41.532212 
L 251.836364 -47.545487 
L 253.626738 -53.31823 
L 255.417112 -53.31823 
L 257.207487 -53.31823 
L 258.997861 -48.026549 
L 260.788235 -47.064425 
L 262.57861 -47.064425 
L 264.368984 -47.064425 
L 266.159358 -47.064425 
L 267.949733 -46.583363 
L 269.740107 -46.583363 
L 271.530481 -46.583363 
L 273.320856 -46.583363 
L 275.11123 -46.583363 
L 276.901604 -51.875044 
L 278.691979 -57.647788 
L 280.482353 -57.407257 
L 282.272727 -57.407257 
L 284.063102 -50.431858 
L 285.853476 -59.812566 
L 287.64385 -67.509558 
L 289.434225 -67.509558 
L 291.224599 -67.509558 
L 293.014973 -61.736814 
L 294.805348 -60.77469 
L 296.595722 -60.77469 
L 298.386096 -60.77469 
L 300.176471 -60.77469 
L 301.966845 -60.534159 
L 303.757219 -60.534159 
L 305.547594 -60.534159 
L 307.337968 -60.534159 
L 309.128342 -56.685664 
L 310.918717 -74.244425 
L 312.709091 -90.600531 
L 314.499465 -90.600531 
L 316.28984 -90.36 
L 318.080214 -72.560708 
L 319.870588 -77.130796 
L 321.660963 -81.700885 
L 323.451337 -81.700885 
L 325.241711 -81.700885 
L 327.032086 -76.649735 
L 328.82246 -75.44708 
L 330.612834 -75.206549 
L 332.403209 -75.206549 
L 334.193583 -74.966018 
L 335.983957 -85.789912 
L 337.774332 -95.892212 
L 339.564706 -95.892212 
L 341.35508 -95.651681 
L 343.145455 -78.573982 
L 344.935829 -114.413097 
L 346.726203 -145.682124 
L 348.516578 -145.441593 
L 350.306952 -145.201062 
L 352.097326 -119.223717 
L 353.887701 -118.502124 
L 355.678075 -120.426372 
L 357.468449 -120.426372 
L 359.258824 -119.94531 
L 361.049198 -117.54 
L 362.839572 -117.54 
L 364.629947 -117.54 
L 366.420321 -117.54 
L 368.210695 -110.08354 
L 370.00107 -154.822301 
L 371.791444 -196.434159 
L 373.581818 -36 
L 373.581818 -36 
L 373.581818 -36 
L 371.791444 -36 
L 370.00107 -36 
L 368.210695 -36 
L 366.420321 -36 
L 364.629947 -36 
L 362.839572 -36 
L 361.049198 -36 
L 359.258824 -36 
L 357.468449 -36 
L 355.678075 -36 
L 353.887701 -36 
L 352.097326 -36 
L 350.306952 -36 
L 348.516578 -36 
L 346.726203 -36 
L 344.935829 -36 
L 343.145455 -36 
L 341.35508 -36 
L 339.564706 -36 
L 337.774332 -36 
L 335.983957 -36 
L 334.193583 -36 
L 332.403209 -36 
L 330.612834 -36 
L 328.82246 -36 
L 327.032086 -36 
L 325.241711 -36 
L 323.451337 -36 
L 321.660963 -36 
L 319.870588 -36 
L 318.080214 -36 
L 316.28984 -36 
L 314.499465 -36 
L 312.709091 -36 
L 310.918717 -36 
L 309.128342 -36 
L 307.337968 -36 
L 305.547594 -36 
L 303.757219 -36 
L 301.966845 -36 
L 300.176471 -36 
L 298.386096 -36 
L 296.595722 -36 
L 294.805348 -36 
L 293.014973 -36 
L 291.224599 -36 
L 289.434225 -36 
L 287.64385 -36 
L 285.853476 -36 
L 284.063102 -36 
L 282.272727 -36 
L 280.482353 -36 
L 278.691979 -36 
L 276.901604 -36 
L 275.11123 -36 
L 273.320856 -36 
L 271.530481 -36 
L 269.740107 -36 
L 267.949733 -36 
L 266.159358 -36 
L 264.368984 -36 
L 262.57861 -36 
L 260.788235 -36 
L 258.997861 -36 
L 257.207487 -36 
L 255.417112 -36 
L 253.626738 -36 
L 251.836364 -36 
L 250.045989 -36 
L 248.255615 -36 
L 246.465241 -36 
L 244.674866 -36 
L 242.884492 -36 
L 241.094118 -36 
L 239.303743 -36 
L 237.513369 -36 
L 235.722995 -36 
L 233.93262 -36 
L 232.142246 -36 
L 230.351872 -36 
L 228.561497 -36 
L 226.771123 -36 
L 224.980749 -36 
L 223.190374 -36 
L 221.4 -36 
L 219.609626 -36 
L 217.819251 -36 
L 216.028877 -36 
L 214.238503 -36 
L 212.448128 -36 
L 210.657754 -36 
L 208.86738 -36 
L 207.077005 -36 
L 205.286631 -36 
L 203.496257 -36 
L 201.705882 -36 
L 199.915508 -36 
L 198.125134 -36 
L 196.334759 -36 
L 194.544385 -36 
L 192.754011 -36 
L 190.963636 -36 
L 189.173262 -36 
L 187.382888 -36 
L 185.592513 -36 
L 183.802139 -36 
L 182.011765 -36 
L 180.22139 -36 
L 178.431016 -36 
L 176.640642 -36 
L 174.850267 -36 
L 173.059893 -36 
L 171.269519 -36 
L 169.479144 -36 
L 167.68877 -36 
L 165.898396 -36 
L 164.108021 -36 
L 162.317647 -36 
L 160.527273 -36 
L 158.736898 -36 
L 156.946524 -36 
L 155.15615 -36 
L 153.365775 -36 
L 151.575401 -36 
L 149.785027 -36 
L 147.994652 -36 
L 146.204278 -36 
L 144.413904 -36 
L 142.623529 -36 
L 140.833155 -36 
L 139.042781 -36 
L 137.252406 -36 
L 135.462032 -36 
L 133.671658 -36 
L 131.881283 -36 
L 130.090909 -36 
L 128.300535 -36 
L 126.51016 -36 
L 124.719786 -36 
L 122.929412 -36 
L 121.139037 -36 
L 119.348663 -36 
L 117.558289 -36 
L 115.767914 -36 
L 113.97754 -36 
L 112.187166 -36 
L 110.396791 -36 
L 108.606417 -36 
L 106.816043 -36 
L 105.025668 -36 
L 103.235294 -36 
L 101.44492 -36 
L 99.654545 -36 
L 97.864171 -36 
L 96.073797 -36 
L 94.283422 -36 
L 92.493048 -36 
L 90.702674 -36 
L 88.912299 -36 
L 87.121925 -36 
L 85.331551 -36 
L 83.541176 -36 
L 81.750802 -36 
L 79.960428 -36 
L 78.170053 -36 
L 76.379679 -36 
L 74.589305 -36 
L 72.79893 -36 
L 71.008556 -36 
L 69.218182 -36 
z
" style="stroke: #ff0000; stroke-opacity: 0.2"/>
    </defs>
    <g clip-path="url(#p0fe344cea0)">
     <use xlink:href="#m81f3b95fd8" x="0" y="288" style="fill: #ff0000; fill-opacity: 0.2; stroke: #ff0000; stroke-opacity: 0.2"/>
    </g>
   </g>
   <g id="line2d_6">
    <path d="M 69.218182 251.518938 
L 97.864171 251.518938 
L 99.654545 251.037876 
L 101.44492 250.797345 
L 131.881283 250.797345 
L 133.671658 250.316283 
L 156.946524 250.316283 
L 160.527273 248.392035 
L 165.898396 248.392035 
L 167.68877 248.151504 
L 190.963636 248.151504 
L 192.754011 246.227257 
L 194.544385 245.265133 
L 196.334759 245.505664 
L 216.028877 245.505664 
L 219.609626 241.657168 
L 224.980749 241.657168 
L 226.771123 239.251858 
L 228.561497 238.770796 
L 232.142246 238.770796 
L 233.93262 239.011327 
L 235.722995 239.011327 
L 237.513369 239.251858 
L 250.045989 239.251858 
L 251.836364 233.960177 
L 253.626738 230.111681 
L 258.997861 230.111681 
L 260.788235 228.909027 
L 275.11123 228.909027 
L 276.901604 225.541593 
L 278.691979 221.693097 
L 280.482353 221.933628 
L 284.063102 221.933628 
L 285.853476 212.312389 
L 287.64385 207.50177 
L 293.014973 207.50177 
L 294.805348 207.020708 
L 300.176471 207.020708 
L 301.966845 207.261239 
L 307.337968 207.261239 
L 309.128342 207.50177 
L 310.918717 193.550973 
L 312.709091 182.72708 
L 314.499465 182.72708 
L 316.28984 182.967611 
L 318.080214 183.448673 
L 319.870588 173.586903 
L 321.660963 170.941062 
L 327.032086 170.941062 
L 330.612834 171.422124 
L 332.403209 171.422124 
L 334.193583 171.662655 
L 335.983957 164.446726 
L 337.774332 157.711858 
L 339.564706 157.711858 
L 341.35508 157.952389 
L 343.145455 157.952389 
L 344.935829 125.480708 
L 346.726203 105.276106 
L 350.306952 105.757168 
L 352.097326 105.757168 
L 353.887701 98.541239 
L 355.678075 97.819646 
L 357.468449 97.819646 
L 359.258824 98.300708 
L 366.420321 98.300708 
L 368.210695 98.78177 
L 370.00107 64.626372 
L 371.791444 36.96531 
L 373.581818 252 
L 373.581818 252 
" clip-path="url(#p0fe344cea0)" style="fill: none; stroke: #d62728; stroke-width: 1.5; stroke-linecap: round"/>
   </g>
   <g id="line2d_7">
    <path d="M 158.736898 252 
L 158.736898 34.56 
" clip-path="url(#p0fe344cea0)" style="fill: none; stroke: #cccccc; stroke-width: 1.5; stroke-linecap: round"/>
   </g>
   <g id="line2d_8">
    <path d="M 212.448128 252 
L 212.448128 34.56 
" clip-path="url(#p0fe344cea0)" style="fill: none; stroke: #cccccc; stroke-width: 1.5; stroke-linecap: round"/>
   </g>
   <g id="line2d_9">
    <path d="M 266.159358 252 
L 266.159358 34.56 
" clip-path="url(#p0fe344cea0)" style="fill: none; stroke: #cccccc; stroke-width: 1.5; stroke-linecap: round"/>
   </g>
   <g id="line2d_10">
    <path d="M 319.870588 252 
L 319.870588 34.56 
" clip-path="url(#p0fe344cea0)" style="fill: none; stroke: #cccccc; stroke-width: 1.5; stroke-linecap: round"/>
   </g>
   <g id="line2d_11">
    <path d="M 373.581818 252 
L 373.581818 34.56 
" clip-path="url(#p0fe344cea0)" style="fill: none; stroke: #cccccc; stroke-width: 1.5; stroke-linecap: round"/>
   </g>
   <g id="patch_3">
    <path d="M 54 252 
L 54 34.56 
" style="fill: none; stroke: #ffffff; stroke-width: 1.25; stroke-linejoin: miter; stroke-linecap: square"/>
   </g>
   <g id="patch_4">
    <path d="M 388.8 252 
L 388.8 34.56 
" style="fill: none; stroke: #ffffff; stroke-width: 1.25; stroke-linejoin: miter; stroke-linecap: square"/>
   </g>
   <g id="patch_5">
    <path d="M 54 252 
L 388.8 252 
" style="fill: none; stroke: #ffffff; stroke-width: 1.25; stroke-linejoin: miter; stroke-linecap: square"/>
   </g>
   <g id="patch_6">
    <path d="M 54 34.56 
L 388.8 34.56 
" style="fill: none; stroke: #ffffff; stroke-width: 1.25; stroke-linejoin: miter; stroke-linecap: square"/>
   </g>
   <g id="legend_1">
    <g id="patch_7">
     <path d="M 61.7 58.919844 
L 166.586719 58.919844 
Q 168.786719 58.919844 168.786719 56.719844 
L 168.786719 42.26 
Q 168.786719 40.06 166.586719 40.06 
L 61.7 40.06 
Q 59.5 40.06 59.5 42.26 
L 59.5 56.719844 
Q 59.5 58.919844 61.7 58.919844 
z
" style="fill: #eaeaf2; opacity: 0.8; stroke: #cccccc; stroke-linejoin: miter"/>
    </g>
    <g id="patch_8">
     <path d="M 63.9 52.333594 
L 85.9 52.333594 
L 85.9 44.633594 
L 63.9 44.633594 
z
" style="fill: #ff0000; fill-opacity: 0.2; stroke: #ff0000; stroke-opacity: 0.2; stroke-linejoin: miter"/>
    </g>
    <g id="text_13">
     <!-- Phoretic mites -->
     <g style="fill: #262626" transform="translate(94.7 52.333594) scale(0.11 -0.11)">
      <defs>
       <path id="ArialMT-50" d="M 494 0 
L 494 4581 
L 2222 4581 
Q 2678 4581 2919 4538 
Q 3256 4481 3484 4323 
Q 3713 4166 3852 3881 
Q 3991 3597 3991 3256 
Q 3991 2672 3619 2267 
Q 3247 1863 2275 1863 
L 1100 1863 
L 1100 0 
L 494 0 
z
M 1100 2403 
L 2284 2403 
Q 2872 2403 3119 2622 
Q 3366 2841 3366 3238 
Q 3366 3525 3220 3729 
Q 3075 3934 2838 4000 
Q 2684 4041 2272 4041 
L 1100 4041 
L 1100 2403 
z
" transform="scale(0.015625)"/>
       <path id="ArialMT-72" d="M 416 0 
L 416 3319 
L 922 3319 
L 922 2816 
Q 1116 3169 1280 3281 
Q 1444 3394 1641 3394 
Q 1925 3394 2219 3213 
L 2025 2691 
Q 1819 2813 1613 2813 
Q 1428 2813 1281 2702 
Q 1134 2591 1072 2394 
Q 978 2094 978 1738 
L 978 0 
L 416 0 
z
" transform="scale(0.015625)"/>
       <path id="ArialMT-63" d="M 2588 1216 
L 3141 1144 
Q 3050 572 2676 248 
Q 2303 -75 1759 -75 
Q 1078 -75 664 370 
Q 250 816 250 1647 
Q 250 2184 428 2587 
Q 606 2991 970 3192 
Q 1334 3394 1763 3394 
Q 2303 3394 2647 3120 
Q 2991 2847 3088 2344 
L 2541 2259 
Q 2463 2594 2264 2762 
Q 2066 2931 1784 2931 
Q 1359 2931 1093 2626 
Q 828 2322 828 1663 
Q 828 994 1084 691 
Q 1341 388 1753 388 
Q 2084 388 2306 591 
Q 2528 794 2588 1216 
z
" transform="scale(0.015625)"/>
      </defs>
      <use xlink:href="#ArialMT-50"/>
      <use xlink:href="#ArialMT-68" x="66.699219"/>
      <use xlink:href="#ArialMT-6f" x="122.314453"/>
      <use xlink:href="#ArialMT-72" x="177.929688"/>
      <use xlink:href="#ArialMT-65" x="211.230469"/>
      <use xlink:href="#ArialMT-74" x="266.845703"/>
      <use xlink:href="#ArialMT-69" x="294.628906"/>
      <use xlink:href="#ArialMT-63" x="316.845703"/>
      <use xlink:href="#ArialMT-20" x="366.845703"/>
      <use xlink:href="#ArialMT-6d" x="394.628906"/>
      <use xlink:href="#ArialMT-69" x="477.929688"/>
      <use xlink:href="#ArialMT-74" x="500.146484"/>
      <use xlink:href="#ArialMT-65" x="527.929688"/>
      <use xlink:href="#ArialMT-73" x="583.544922"/>
     </g>
    </g>
   </g>
  </g>
  <g id="axes_2">
   <g id="matplotlib.axis_3">
    <g id="ytick_6">
     <g id="line2d_12">
      <defs>
       <path id="mf4667e04b6" d="M 0 0 
L 6 0 
" style="stroke: #1f77b4; stroke-width: 1.25"/>
      </defs>
      <g>
       <use xlink:href="#mf4667e04b6" x="388.8" y="252" style="fill: #1f77b4; stroke: #1f77b4; stroke-width: 1.25"/>
      </g>
     </g>
     <g id="text_14">
      <!-- 0.0 -->
      <g style="fill: #1f77b4" transform="translate(398.3 255.936797) scale(0.11 -0.11)">
       <defs>
        <path id="ArialMT-2e" d="M 581 0 
L 581 641 
L 1222 641 
L 1222 0 
L 581 0 
z
" transform="scale(0.015625)"/>
       </defs>
       <use xlink:href="#ArialMT-30"/>
       <use xlink:href="#ArialMT-2e" x="55.615234"/>
       <use xlink:href="#ArialMT-30" x="83.398438"/>
      </g>
     </g>
    </g>
    <g id="ytick_7">
     <g id="line2d_13">
      <g>
       <use xlink:href="#mf4667e04b6" x="388.8" y="208.512" style="fill: #1f77b4; stroke: #1f77b4; stroke-width: 1.25"/>
      </g>
     </g>
     <g id="text_15">
      <!-- 0.2 -->
      <g style="fill: #1f77b4" transform="translate(398.3 212.448797) scale(0.11 -0.11)">
       <use xlink:href="#ArialMT-30"/>
       <use xlink:href="#ArialMT-2e" x="55.615234"/>
       <use xlink:href="#ArialMT-32" x="83.398438"/>
      </g>
     </g>
    </g>
    <g id="ytick_8">
     <g id="line2d_14">
      <g>
       <use xlink:href="#mf4667e04b6" x="388.8" y="165.024" style="fill: #1f77b4; stroke: #1f77b4; stroke-width: 1.25"/>
      </g>
     </g>
     <g id="text_16">
      <!-- 0.4 -->
      <g style="fill: #1f77b4" transform="translate(398.3 168.960797) scale(0.11 -0.11)">
       <use xlink:href="#ArialMT-30"/>
       <use xlink:href="#ArialMT-2e" x="55.615234"/>
       <use xlink:href="#ArialMT-34" x="83.398438"/>
      </g>
     </g>
    </g>
    <g id="ytick_9">
     <g id="line2d_15">
      <g>
       <use xlink:href="#mf4667e04b6" x="388.8" y="121.536" style="fill: #1f77b4; stroke: #1f77b4; stroke-width: 1.25"/>
      </g>
     </g>
     <g id="text_17">
      <!-- 0.6 -->
      <g style="fill: #1f77b4" transform="translate(398.3 125.472797) scale(0.11 -0.11)">
       <use xlink:href="#ArialMT-30"/>
       <use xlink:href="#ArialMT-2e" x="55.615234"/>
       <use xlink:href="#ArialMT-36" x="83.398438"/>
      </g>
     </g>
    </g>
    <g id="ytick_10">
     <g id="line2d_16">
      <g>
       <use xlink:href="#mf4667e04b6" x="388.8" y="78.048" style="fill: #1f77b4; stroke: #1f77b4; stroke-width: 1.25"/>
      </g>
     </g>
     <g id="text_18">
      <!-- 0.8 -->
      <g style="fill: #1f77b4" transform="translate(398.3 81.984797) scale(0.11 -0.11)">
       <use xlink:href="#ArialMT-30"/>
       <use xlink:href="#ArialMT-2e" x="55.615234"/>
       <use xlink:href="#ArialMT-38" x="83.398438"/>
      </g>
     </g>
    </g>
    <g id="ytick_11">
     <g id="line2d_17">
      <g>
       <use xlink:href="#mf4667e04b6" x="388.8" y="34.56" style="fill: #1f77b4; stroke: #1f77b4; stroke-width: 1.25"/>
      </g>
     </g>
     <g id="text_19">
      <!-- 1.0 -->
      <g style="fill: #1f77b4" transform="translate(398.3 38.496797) scale(0.11 -0.11)">
       <use xlink:href="#ArialMT-31"/>
       <use xlink:href="#ArialMT-2e" x="55.615234"/>
       <use xlink:href="#ArialMT-30" x="83.398438"/>
      </g>
     </g>
    </g>
    <g id="text_20">
     <!-- Prob of positive test result -->
     <g style="fill: #1f77b4" transform="translate(419.854375 74.251875) rotate(-270) scale(0.12 -0.12)">
      <defs>
       <path id="ArialMT-62" d="M 941 0 
L 419 0 
L 419 4581 
L 981 4581 
L 981 2947 
Q 1338 3394 1891 3394 
Q 2197 3394 2470 3270 
Q 2744 3147 2920 2923 
Q 3097 2700 3197 2384 
Q 3297 2069 3297 1709 
Q 3297 856 2875 390 
Q 2453 -75 1863 -75 
Q 1275 -75 941 416 
L 941 0 
z
M 934 1684 
Q 934 1088 1097 822 
Q 1363 388 1816 388 
Q 2184 388 2453 708 
Q 2722 1028 2722 1663 
Q 2722 2313 2464 2622 
Q 2206 2931 1841 2931 
Q 1472 2931 1203 2611 
Q 934 2291 934 1684 
z
" transform="scale(0.015625)"/>
       <path id="ArialMT-66" d="M 556 0 
L 556 2881 
L 59 2881 
L 59 3319 
L 556 3319 
L 556 3672 
Q 556 4006 616 4169 
Q 697 4388 901 4523 
Q 1106 4659 1475 4659 
Q 1713 4659 2000 4603 
L 1916 4113 
Q 1741 4144 1584 4144 
Q 1328 4144 1222 4034 
Q 1116 3925 1116 3625 
L 1116 3319 
L 1763 3319 
L 1763 2881 
L 1116 2881 
L 1116 0 
L 556 0 
z
" transform="scale(0.015625)"/>
       <path id="ArialMT-70" d="M 422 -1272 
L 422 3319 
L 934 3319 
L 934 2888 
Q 1116 3141 1344 3267 
Q 1572 3394 1897 3394 
Q 2322 3394 2647 3175 
Q 2972 2956 3137 2557 
Q 3303 2159 3303 1684 
Q 3303 1175 3120 767 
Q 2938 359 2589 142 
Q 2241 -75 1856 -75 
Q 1575 -75 1351 44 
Q 1128 163 984 344 
L 984 -1272 
L 422 -1272 
z
M 931 1641 
Q 931 1000 1190 694 
Q 1450 388 1819 388 
Q 2194 388 2461 705 
Q 2728 1022 2728 1688 
Q 2728 2322 2467 2637 
Q 2206 2953 1844 2953 
Q 1484 2953 1207 2617 
Q 931 2281 931 1641 
z
" transform="scale(0.015625)"/>
       <path id="ArialMT-75" d="M 2597 0 
L 2597 488 
Q 2209 -75 1544 -75 
Q 1250 -75 995 37 
Q 741 150 617 320 
Q 494 491 444 738 
Q 409 903 409 1263 
L 409 3319 
L 972 3319 
L 972 1478 
Q 972 1038 1006 884 
Q 1059 663 1231 536 
Q 1403 409 1656 409 
Q 1909 409 2131 539 
Q 2353 669 2445 892 
Q 2538 1116 2538 1541 
L 2538 3319 
L 3100 3319 
L 3100 0 
L 2597 0 
z
" transform="scale(0.015625)"/>
      </defs>
      <use xlink:href="#ArialMT-50"/>
      <use xlink:href="#ArialMT-72" x="66.699219"/>
      <use xlink:href="#ArialMT-6f" x="100"/>
      <use xlink:href="#ArialMT-62" x="155.615234"/>
      <use xlink:href="#ArialMT-20" x="211.230469"/>
      <use xlink:href="#ArialMT-6f" x="239.013672"/>
      <use xlink:href="#ArialMT-66" x="294.628906"/>
      <use xlink:href="#ArialMT-20" x="322.412109"/>
      <use xlink:href="#ArialMT-70" x="350.195312"/>
      <use xlink:href="#ArialMT-6f" x="405.810547"/>
      <use xlink:href="#ArialMT-73" x="461.425781"/>
      <use xlink:href="#ArialMT-69" x="511.425781"/>
      <use xlink:href="#ArialMT-74" x="533.642578"/>
      <use xlink:href="#ArialMT-69" x="561.425781"/>
      <use xlink:href="#ArialMT-76" x="583.642578"/>
      <use xlink:href="#ArialMT-65" x="633.642578"/>
      <use xlink:href="#ArialMT-20" x="689.257812"/>
      <use xlink:href="#ArialMT-74" x="717.041016"/>
      <use xlink:href="#ArialMT-65" x="744.824219"/>
      <use xlink:href="#ArialMT-73" x="800.439453"/>
      <use xlink:href="#ArialMT-74" x="850.439453"/>
      <use xlink:href="#ArialMT-20" x="878.222656"/>
      <use xlink:href="#ArialMT-72" x="906.005859"/>
      <use xlink:href="#ArialMT-65" x="939.306641"/>
      <use xlink:href="#ArialMT-73" x="994.921875"/>
      <use xlink:href="#ArialMT-75" x="1044.921875"/>
      <use xlink:href="#ArialMT-6c" x="1100.537109"/>
      <use xlink:href="#ArialMT-74" x="1122.753906"/>
     </g>
    </g>
   </g>
   <g id="line2d_18">
    <path d="M 69.218182 249.728785 
L 71.008556 249.728785 
L 74.589305 252 
L 97.864171 252 
L 99.654545 248.60206 
L 101.44492 246.36622 
L 105.025668 246.36622 
L 106.816043 247.481215 
L 130.090909 247.481215 
L 131.881283 249.728785 
L 133.671658 248.60206 
L 139.042781 248.60206 
L 140.833155 249.728785 
L 156.946524 249.728785 
L 160.527273 236.589544 
L 164.108021 236.589544 
L 165.898396 240.877936 
L 189.173262 240.877936 
L 190.963636 245.257045 
L 192.754011 236.589544 
L 194.544385 230.322966 
L 196.334759 231.353777 
L 198.125134 231.353777 
L 199.915508 237.65324 
L 201.705882 239.797407 
L 216.028877 239.797407 
L 219.609626 215.491165 
L 223.190374 215.491165 
L 224.980749 226.253259 
L 226.771123 218.365088 
L 228.561497 214.543178 
L 232.142246 214.543178 
L 233.93262 218.365088 
L 235.722995 218.365088 
L 237.513369 219.333137 
L 248.255615 219.333137 
L 250.045989 227.262711 
L 251.836364 203.546199 
L 253.626738 183.521012 
L 257.207487 183.521012 
L 258.997861 201.77962 
L 260.788235 205.331379 
L 266.159358 205.331379 
L 267.949733 207.135353 
L 275.11123 207.135353 
L 278.691979 170.070681 
L 280.482353 170.785105 
L 282.272727 170.785105 
L 284.063102 193.219034 
L 285.853476 163.806599 
L 287.64385 143.782099 
L 291.224599 143.782099 
L 293.014973 158.481259 
L 294.805348 161.116015 
L 300.176471 161.116015 
L 301.966845 161.783381 
L 307.337968 161.783381 
L 309.128342 172.950978 
L 310.918717 128.815525 
L 312.709091 100.437671 
L 314.499465 100.437671 
L 316.28984 100.785822 
L 318.080214 132.353658 
L 319.870588 123.044466 
L 321.660963 114.618765 
L 325.241711 114.618765 
L 327.032086 123.981249 
L 328.82246 126.366679 
L 330.612834 126.851321 
L 332.403209 126.851321 
L 334.193583 127.338514 
L 335.983957 107.760321 
L 337.774332 93.223427 
L 339.564706 93.223427 
L 341.35508 93.533572 
L 343.145455 120.292398 
L 344.935829 73.636539 
L 346.726203 54.214764 
L 350.306952 54.423901 
L 352.097326 69.719723 
L 353.887701 70.281285 
L 355.678075 68.803272 
L 357.468449 68.803272 
L 359.258824 69.16696 
L 361.049198 71.043963 
L 366.420321 71.043963 
L 368.210695 77.532029 
L 370.00107 50.633107 
L 371.791444 40.98101 
L 373.581818 252 
L 373.581818 252 
" clip-path="url(#p0fe344cea0)" style="fill: none; stroke: #1f77b4; stroke-width: 1.5; stroke-linecap: round"/>
   </g>
   <g id="patch_9">
    <path d="M 54 252 
L 54 34.56 
" style="fill: none; stroke: #ffffff; stroke-width: 1.25; stroke-linejoin: miter; stroke-linecap: square"/>
   </g>
   <g id="patch_10">
    <path d="M 388.8 252 
L 388.8 34.56 
" style="fill: none; stroke: #ffffff; stroke-width: 1.25; stroke-linejoin: miter; stroke-linecap: square"/>
   </g>
   <g id="patch_11">
    <path d="M 54 252 
L 388.8 252 
" style="fill: none; stroke: #ffffff; stroke-width: 1.25; stroke-linejoin: miter; stroke-linecap: square"/>
   </g>
   <g id="patch_12">
    <path d="M 54 34.56 
L 388.8 34.56 
" style="fill: none; stroke: #ffffff; stroke-width: 1.25; stroke-linejoin: miter; stroke-linecap: square"/>
   </g>
  </g>
 </g>
 <defs>
  <clipPath id="p0fe344cea0">
   <rect x="54" y="34.56" width="334.8" height="217.44"/>
  </clipPath>
 </defs>
</svg>
