<?xml version="1.0" encoding="utf-8" standalone="no"?>
<!DOCTYPE svg PUBLIC "-//W3C//DTD SVG 1.1//EN"
  "http://www.w3.org/Graphics/SVG/1.1/DTD/svg11.dtd">
<svg xmlns:xlink="http://www.w3.org/1999/xlink" width="720pt" height="720pt" viewBox="0 0 720 720" xmlns="http://www.w3.org/2000/svg" version="1.1">
 <metadata>
  <rdf:RDF xmlns:dc="http://purl.org/dc/elements/1.1/" xmlns:cc="http://creativecommons.org/ns#" xmlns:rdf="http://www.w3.org/1999/02/22-rdf-syntax-ns#">
   <cc:Work>
    <dc:type rdf:resource="http://purl.org/dc/dcmitype/StillImage"/>
    <dc:date>2024-07-15T10:30:04.593442</dc:date>
    <dc:format>image/svg+xml</dc:format>
    <dc:creator>
     <cc:Agent>
      <dc:title>Matplotlib v3.6.2, https://matplotlib.org/</dc:title>
     </cc:Agent>
    </dc:creator>
   </cc:Work>
  </rdf:RDF>
 </metadata>
 <defs>
  <style type="text/css">*{stroke-linejoin: round; stroke-linecap: butt}</style>
 </defs>
 <g id="figure_1">
  <g id="patch_1">
   <path d="M 0 720 
L 720 720 
L 720 0 
L 0 0 
z
" style="fill: #ffffff"/>
  </g>
  <g id="axes_1">
   <g id="patch_2">
    <path d="M 45.835 212.127917 
L 235.68 212.127917 
L 235.68 30.96 
L 45.835 30.96 
z
" style="fill: #eaeaf2"/>
   </g>
   <g id="matplotlib.axis_1">
    <g id="xtick_1">
     <g id="text_1">
      <!-- 0 -->
      <g style="fill: #262626" transform="translate(49.01683 231.648854) scale(0.14 -0.14)">
       <defs>
        <path id="ArialMT-30" d="M 266 2259 
Q 266 3072 433 3567 
Q 600 4063 929 4331 
Q 1259 4600 1759 4600 
Q 2128 4600 2406 4451 
Q 2684 4303 2865 4023 
Q 3047 3744 3150 3342 
Q 3253 2941 3253 2259 
Q 3253 1453 3087 958 
Q 2922 463 2592 192 
Q 2263 -78 1759 -78 
Q 1097 -78 719 397 
Q 266 969 266 2259 
z
M 844 2259 
Q 844 1131 1108 757 
Q 1372 384 1759 384 
Q 2147 384 2411 759 
Q 2675 1134 2675 2259 
Q 2675 3391 2411 3762 
Q 2147 4134 1753 4134 
Q 1366 4134 1134 3806 
Q 844 3388 844 2259 
z
" transform="scale(0.015625)"/>
       </defs>
       <use xlink:href="#ArialMT-30"/>
      </g>
     </g>
    </g>
    <g id="xtick_2">
     <g id="text_2">
      <!-- 50 -->
      <g style="fill: #262626" transform="translate(122.865779 231.648854) scale(0.14 -0.14)">
       <defs>
        <path id="ArialMT-35" d="M 266 1200 
L 856 1250 
Q 922 819 1161 601 
Q 1400 384 1738 384 
Q 2144 384 2425 690 
Q 2706 997 2706 1503 
Q 2706 1984 2436 2262 
Q 2166 2541 1728 2541 
Q 1456 2541 1237 2417 
Q 1019 2294 894 2097 
L 366 2166 
L 809 4519 
L 3088 4519 
L 3088 3981 
L 1259 3981 
L 1013 2750 
Q 1425 3038 1878 3038 
Q 2478 3038 2890 2622 
Q 3303 2206 3303 1553 
Q 3303 931 2941 478 
Q 2500 -78 1738 -78 
Q 1113 -78 717 272 
Q 322 622 266 1200 
z
" transform="scale(0.015625)"/>
       </defs>
       <use xlink:href="#ArialMT-35"/>
       <use xlink:href="#ArialMT-30" x="55.615234"/>
      </g>
     </g>
    </g>
    <g id="xtick_3">
     <g id="text_3">
      <!-- 100 -->
      <g style="fill: #262626" transform="translate(196.714728 231.648854) scale(0.14 -0.14)">
       <defs>
        <path id="ArialMT-31" d="M 2384 0 
L 1822 0 
L 1822 3584 
Q 1619 3391 1289 3197 
Q 959 3003 697 2906 
L 697 3450 
Q 1169 3672 1522 3987 
Q 1875 4303 2022 4600 
L 2384 4600 
L 2384 0 
z
" transform="scale(0.015625)"/>
       </defs>
       <use xlink:href="#ArialMT-31"/>
       <use xlink:href="#ArialMT-30" x="55.615234"/>
       <use xlink:href="#ArialMT-30" x="111.230469"/>
      </g>
     </g>
    </g>
   </g>
   <g id="matplotlib.axis_2">
    <g id="ytick_1">
     <g id="text_4">
      <!-- 0 -->
      <g style="fill: #262626" transform="translate(28.549687 217.138385) scale(0.14 -0.14)">
       <use xlink:href="#ArialMT-30"/>
      </g>
     </g>
    </g>
    <g id="ytick_2">
     <g id="text_5">
      <!-- 50 -->
      <g style="fill: #262626" transform="translate(20.764375 165.670227) scale(0.14 -0.14)">
       <use xlink:href="#ArialMT-35"/>
       <use xlink:href="#ArialMT-30" x="55.615234"/>
      </g>
     </g>
    </g>
    <g id="ytick_3">
     <g id="text_6">
      <!-- 100 -->
      <g style="fill: #262626" transform="translate(12.979062 114.202069) scale(0.14 -0.14)">
       <use xlink:href="#ArialMT-31"/>
       <use xlink:href="#ArialMT-30" x="55.615234"/>
       <use xlink:href="#ArialMT-30" x="111.230469"/>
      </g>
     </g>
    </g>
    <g id="ytick_4">
     <g id="text_7">
      <!-- 150 -->
      <g style="fill: #262626" transform="translate(12.979062 62.733911) scale(0.14 -0.14)">
       <use xlink:href="#ArialMT-31"/>
       <use xlink:href="#ArialMT-35" x="55.615234"/>
       <use xlink:href="#ArialMT-30" x="111.230469"/>
      </g>
     </g>
    </g>
   </g>
   <g id="line2d_1">
    <path d="M 54.464318 212.127917 
L 56.01915 212.127917 
L 57.573982 212.127917 
L 59.128814 212.127917 
L 60.683647 212.127917 
L 62.238479 212.127917 
L 63.793311 212.127917 
L 65.348143 212.127917 
L 66.902975 212.127917 
L 68.457807 212.127917 
L 70.012639 212.127917 
L 71.567471 212.127917 
L 73.122303 212.127917 
L 74.677136 212.127917 
L 76.231968 212.127917 
L 77.7868 212.127917 
L 79.341632 212.127917 
L 80.896464 212.127917 
L 82.451296 212.127917 
L 84.006128 212.127917 
L 85.56096 212.127917 
L 87.115792 212.127917 
L 88.670624 212.127917 
L 90.225457 212.127917 
L 91.780289 212.127917 
L 93.335121 212.127917 
L 94.889953 212.127917 
L 96.444785 212.127917 
L 97.999617 212.127917 
L 99.554449 212.127917 
L 101.109281 212.127917 
L 102.664113 212.127917 
L 104.218946 212.127917 
L 105.773778 212.127917 
L 107.32861 212.127917 
L 108.883442 212.127917 
L 110.438274 212.127917 
L 111.993106 212.127917 
L 113.547938 212.127917 
L 115.10277 212.127917 
L 116.657602 212.127917 
L 118.212434 212.127917 
L 119.767267 212.127917 
L 121.322099 212.127917 
L 122.876931 212.127917 
L 124.431763 212.127917 
L 125.986595 212.127917 
L 127.541427 212.127917 
L 129.096259 212.127917 
L 130.651091 212.127917 
L 132.205923 212.127917 
L 133.760756 212.127917 
L 135.315588 212.127917 
L 136.87042 212.127917 
L 138.425252 212.127917 
L 139.980084 212.127917 
L 141.534916 212.127917 
L 143.089748 212.127917 
L 144.64458 212.127917 
L 146.199412 212.127917 
L 147.754244 212.127917 
L 149.309077 212.127917 
L 150.863909 212.127917 
L 152.418741 212.127917 
L 153.973573 212.127917 
L 155.528405 212.127917 
L 157.083237 212.127917 
L 158.638069 212.127917 
L 160.192901 212.127917 
L 161.747733 212.127917 
L 163.302566 212.127917 
L 164.857398 212.127917 
L 166.41223 212.127917 
L 167.967062 212.127917 
L 169.521894 212.127917 
L 171.076726 212.127917 
L 172.631558 212.127917 
L 174.18639 212.127917 
L 175.741222 212.127917 
L 177.296054 212.127917 
L 178.850887 212.127917 
L 180.405719 212.127917 
L 181.960551 212.127917 
L 183.515383 212.127917 
L 185.070215 212.127917 
L 186.625047 212.127917 
L 188.179879 212.127917 
L 189.734711 212.127917 
L 191.289543 212.127917 
L 192.844376 212.127917 
L 194.399208 212.127917 
L 195.95404 212.127917 
L 197.508872 212.127917 
L 199.063704 212.127917 
L 200.618536 212.127917 
L 202.173368 212.127917 
L 203.7282 212.127917 
L 205.283032 212.127917 
L 206.837864 212.127917 
L 208.392697 212.127917 
L 209.947529 212.127917 
L 211.502361 212.127917 
L 213.057193 212.127917 
L 214.612025 212.127917 
L 216.166857 212.127917 
L 217.721689 212.127917 
L 219.276521 212.127917 
L 220.831353 212.127917 
L 222.386186 212.127917 
L 223.941018 212.127917 
L 225.49585 212.127917 
L 227.050682 212.127917 
" clip-path="url(#p4c46d46ebc)" style="fill: none; stroke: #4c72b0; stroke-width: 1.5; stroke-linecap: round"/>
   </g>
   <g id="patch_3">
    <path d="M 45.835 212.127917 
L 45.835 30.96 
" style="fill: none; stroke: #ffffff; stroke-width: 1.25; stroke-linejoin: miter; stroke-linecap: square"/>
   </g>
   <g id="patch_4">
    <path d="M 235.68 212.127917 
L 235.68 30.96 
" style="fill: none; stroke: #ffffff; stroke-width: 1.25; stroke-linejoin: miter; stroke-linecap: square"/>
   </g>
   <g id="patch_5">
    <path d="M 45.835 212.127917 
L 235.68 212.127917 
" style="fill: none; stroke: #ffffff; stroke-width: 1.25; stroke-linejoin: miter; stroke-linecap: square"/>
   </g>
   <g id="patch_6">
    <path d="M 45.835 30.96 
L 235.68 30.96 
" style="fill: none; stroke: #ffffff; stroke-width: 1.25; stroke-linejoin: miter; stroke-linecap: square"/>
   </g>
   <g id="text_8">
    <!-- Hive 0 -->
    <g style="fill: #262626" transform="translate(118.0825 24.96) scale(0.16 -0.16)">
     <defs>
      <path id="ArialMT-48" d="M 513 0 
L 513 4581 
L 1119 4581 
L 1119 2700 
L 3500 2700 
L 3500 4581 
L 4106 4581 
L 4106 0 
L 3500 0 
L 3500 2159 
L 1119 2159 
L 1119 0 
L 513 0 
z
" transform="scale(0.015625)"/>
      <path id="ArialMT-69" d="M 425 3934 
L 425 4581 
L 988 4581 
L 988 3934 
L 425 3934 
z
M 425 0 
L 425 3319 
L 988 3319 
L 988 0 
L 425 0 
z
" transform="scale(0.015625)"/>
      <path id="ArialMT-76" d="M 1344 0 
L 81 3319 
L 675 3319 
L 1388 1331 
Q 1503 1009 1600 663 
Q 1675 925 1809 1294 
L 2547 3319 
L 3125 3319 
L 1869 0 
L 1344 0 
z
" transform="scale(0.015625)"/>
      <path id="ArialMT-65" d="M 2694 1069 
L 3275 997 
Q 3138 488 2766 206 
Q 2394 -75 1816 -75 
Q 1088 -75 661 373 
Q 234 822 234 1631 
Q 234 2469 665 2931 
Q 1097 3394 1784 3394 
Q 2450 3394 2872 2941 
Q 3294 2488 3294 1666 
Q 3294 1616 3291 1516 
L 816 1516 
Q 847 969 1125 678 
Q 1403 388 1819 388 
Q 2128 388 2347 550 
Q 2566 713 2694 1069 
z
M 847 1978 
L 2700 1978 
Q 2663 2397 2488 2606 
Q 2219 2931 1791 2931 
Q 1403 2931 1139 2672 
Q 875 2413 847 1978 
z
" transform="scale(0.015625)"/>
      <path id="ArialMT-20" transform="scale(0.015625)"/>
     </defs>
     <use xlink:href="#ArialMT-48"/>
     <use xlink:href="#ArialMT-69" x="72.216797"/>
     <use xlink:href="#ArialMT-76" x="94.433594"/>
     <use xlink:href="#ArialMT-65" x="144.433594"/>
     <use xlink:href="#ArialMT-20" x="200.048828"/>
     <use xlink:href="#ArialMT-30" x="227.832031"/>
    </g>
   </g>
  </g>
  <g id="axes_2">
   <g id="patch_7">
    <path d="M 281.515 212.127917 
L 471.36 212.127917 
L 471.36 30.96 
L 281.515 30.96 
z
" style="fill: #eaeaf2"/>
   </g>
   <g id="matplotlib.axis_3">
    <g id="xtick_4">
     <g id="text_9">
      <!-- 0 -->
      <g style="fill: #262626" transform="translate(284.69683 231.648854) scale(0.14 -0.14)">
       <use xlink:href="#ArialMT-30"/>
      </g>
     </g>
    </g>
    <g id="xtick_5">
     <g id="text_10">
      <!-- 50 -->
      <g style="fill: #262626" transform="translate(358.545779 231.648854) scale(0.14 -0.14)">
       <use xlink:href="#ArialMT-35"/>
       <use xlink:href="#ArialMT-30" x="55.615234"/>
      </g>
     </g>
    </g>
    <g id="xtick_6">
     <g id="text_11">
      <!-- 100 -->
      <g style="fill: #262626" transform="translate(432.394728 231.648854) scale(0.14 -0.14)">
       <use xlink:href="#ArialMT-31"/>
       <use xlink:href="#ArialMT-30" x="55.615234"/>
       <use xlink:href="#ArialMT-30" x="111.230469"/>
      </g>
     </g>
    </g>
   </g>
   <g id="matplotlib.axis_4">
    <g id="ytick_5">
     <g id="text_12">
      <!-- 0 -->
      <g style="fill: #262626" transform="translate(264.229688 217.138385) scale(0.14 -0.14)">
       <use xlink:href="#ArialMT-30"/>
      </g>
     </g>
    </g>
    <g id="ytick_6">
     <g id="text_13">
      <!-- 50 -->
      <g style="fill: #262626" transform="translate(256.444375 165.670227) scale(0.14 -0.14)">
       <use xlink:href="#ArialMT-35"/>
       <use xlink:href="#ArialMT-30" x="55.615234"/>
      </g>
     </g>
    </g>
    <g id="ytick_7">
     <g id="text_14">
      <!-- 100 -->
      <g style="fill: #262626" transform="translate(248.659063 114.202069) scale(0.14 -0.14)">
       <use xlink:href="#ArialMT-31"/>
       <use xlink:href="#ArialMT-30" x="55.615234"/>
       <use xlink:href="#ArialMT-30" x="111.230469"/>
      </g>
     </g>
    </g>
    <g id="ytick_8">
     <g id="text_15">
      <!-- 150 -->
      <g style="fill: #262626" transform="translate(248.659063 62.733911) scale(0.14 -0.14)">
       <use xlink:href="#ArialMT-31"/>
       <use xlink:href="#ArialMT-35" x="55.615234"/>
       <use xlink:href="#ArialMT-30" x="111.230469"/>
      </g>
     </g>
    </g>
   </g>
   <g id="line2d_2">
    <path d="M 290.144318 212.127917 
L 291.69915 212.127917 
L 293.253982 212.127917 
L 294.808814 212.127917 
L 296.363647 212.127917 
L 297.918479 212.127917 
L 299.473311 212.127917 
L 301.028143 212.127917 
L 302.582975 212.127917 
L 304.137807 212.127917 
L 305.692639 212.127917 
L 307.247471 212.127917 
L 308.802303 212.127917 
L 310.357136 212.127917 
L 311.911968 212.127917 
L 313.4668 212.127917 
L 315.021632 212.127917 
L 316.576464 212.127917 
L 318.131296 212.127917 
L 319.686128 212.127917 
L 321.24096 212.127917 
L 322.795792 212.127917 
L 324.350624 212.127917 
L 325.905457 212.127917 
L 327.460289 212.127917 
L 329.015121 212.127917 
L 330.569953 212.127917 
L 332.124785 212.127917 
L 333.679617 212.127917 
L 335.234449 212.127917 
L 336.789281 212.127917 
L 338.344113 212.127917 
L 339.898946 212.127917 
L 341.453778 212.127917 
L 343.00861 212.127917 
L 344.563442 212.127917 
L 346.118274 212.127917 
L 347.673106 212.127917 
L 349.227938 212.127917 
L 350.78277 212.127917 
L 352.337602 212.127917 
L 353.892434 212.127917 
L 355.447267 212.127917 
L 357.002099 212.127917 
L 358.556931 212.127917 
L 360.111763 212.127917 
L 361.666595 212.127917 
L 363.221427 212.127917 
L 364.776259 212.127917 
L 366.331091 212.127917 
L 367.885923 212.127917 
L 369.440756 212.127917 
L 370.995588 212.127917 
L 372.55042 212.127917 
L 374.105252 212.127917 
L 375.660084 212.127917 
L 377.214916 212.127917 
L 378.769748 212.127917 
L 380.32458 212.127917 
L 381.879412 212.127917 
L 383.434244 212.127917 
L 384.989077 212.127917 
L 386.543909 212.127917 
L 388.098741 212.127917 
L 389.653573 212.127917 
L 391.208405 212.127917 
L 392.763237 212.127917 
L 394.318069 212.127917 
L 395.872901 212.127917 
L 397.427733 212.127917 
L 398.982566 212.127917 
L 400.537398 212.127917 
L 402.09223 212.127917 
L 403.647062 212.127917 
L 405.201894 212.127917 
L 406.756726 212.127917 
L 408.311558 212.127917 
L 409.86639 212.127917 
L 411.421222 212.127917 
L 412.976054 212.127917 
L 414.530887 212.127917 
L 416.085719 212.127917 
L 417.640551 212.127917 
L 419.195383 212.127917 
L 420.750215 212.127917 
L 422.305047 212.127917 
L 423.859879 212.127917 
L 425.414711 212.127917 
L 426.969543 212.127917 
L 428.524376 212.127917 
L 430.079208 212.127917 
L 431.63404 212.127917 
L 433.188872 212.127917 
L 434.743704 212.127917 
L 436.298536 212.127917 
L 437.853368 212.127917 
L 439.4082 212.127917 
L 440.963032 212.127917 
L 442.517864 212.127917 
L 444.072697 212.127917 
L 445.627529 212.127917 
L 447.182361 212.127917 
L 448.737193 212.127917 
L 450.292025 212.127917 
L 451.846857 212.127917 
L 453.401689 212.127917 
L 454.956521 212.127917 
L 456.511353 212.127917 
L 458.066186 212.127917 
L 459.621018 212.127917 
L 461.17585 212.127917 
L 462.730682 212.127917 
" clip-path="url(#p1f9bc1e33f)" style="fill: none; stroke: #4c72b0; stroke-width: 1.5; stroke-linecap: round"/>
   </g>
   <g id="patch_8">
    <path d="M 281.515 212.127917 
L 281.515 30.96 
" style="fill: none; stroke: #ffffff; stroke-width: 1.25; stroke-linejoin: miter; stroke-linecap: square"/>
   </g>
   <g id="patch_9">
    <path d="M 471.36 212.127917 
L 471.36 30.96 
" style="fill: none; stroke: #ffffff; stroke-width: 1.25; stroke-linejoin: miter; stroke-linecap: square"/>
   </g>
   <g id="patch_10">
    <path d="M 281.515 212.127917 
L 471.36 212.127917 
" style="fill: none; stroke: #ffffff; stroke-width: 1.25; stroke-linejoin: miter; stroke-linecap: square"/>
   </g>
   <g id="patch_11">
    <path d="M 281.515 30.96 
L 471.36 30.96 
" style="fill: none; stroke: #ffffff; stroke-width: 1.25; stroke-linejoin: miter; stroke-linecap: square"/>
   </g>
   <g id="text_16">
    <!-- Hive 1 -->
    <g style="fill: #262626" transform="translate(353.7625 24.96) scale(0.16 -0.16)">
     <use xlink:href="#ArialMT-48"/>
     <use xlink:href="#ArialMT-69" x="72.216797"/>
     <use xlink:href="#ArialMT-76" x="94.433594"/>
     <use xlink:href="#ArialMT-65" x="144.433594"/>
     <use xlink:href="#ArialMT-20" x="200.048828"/>
     <use xlink:href="#ArialMT-31" x="227.832031"/>
    </g>
   </g>
  </g>
  <g id="axes_3">
   <g id="patch_12">
    <path d="M 517.195 212.127917 
L 707.04 212.127917 
L 707.04 30.96 
L 517.195 30.96 
z
" style="fill: #eaeaf2"/>
   </g>
   <g id="matplotlib.axis_5">
    <g id="xtick_7">
     <g id="text_17">
      <!-- 0 -->
      <g style="fill: #262626" transform="translate(520.37683 231.648854) scale(0.14 -0.14)">
       <use xlink:href="#ArialMT-30"/>
      </g>
     </g>
    </g>
    <g id="xtick_8">
     <g id="text_18">
      <!-- 50 -->
      <g style="fill: #262626" transform="translate(594.225779 231.648854) scale(0.14 -0.14)">
       <use xlink:href="#ArialMT-35"/>
       <use xlink:href="#ArialMT-30" x="55.615234"/>
      </g>
     </g>
    </g>
    <g id="xtick_9">
     <g id="text_19">
      <!-- 100 -->
      <g style="fill: #262626" transform="translate(668.074728 231.648854) scale(0.14 -0.14)">
       <use xlink:href="#ArialMT-31"/>
       <use xlink:href="#ArialMT-30" x="55.615234"/>
       <use xlink:href="#ArialMT-30" x="111.230469"/>
      </g>
     </g>
    </g>
   </g>
   <g id="matplotlib.axis_6">
    <g id="ytick_9">
     <g id="text_20">
      <!-- 0 -->
      <g style="fill: #262626" transform="translate(499.909688 217.138385) scale(0.14 -0.14)">
       <use xlink:href="#ArialMT-30"/>
      </g>
     </g>
    </g>
    <g id="ytick_10">
     <g id="text_21">
      <!-- 50 -->
      <g style="fill: #262626" transform="translate(492.124375 165.670227) scale(0.14 -0.14)">
       <use xlink:href="#ArialMT-35"/>
       <use xlink:href="#ArialMT-30" x="55.615234"/>
      </g>
     </g>
    </g>
    <g id="ytick_11">
     <g id="text_22">
      <!-- 100 -->
      <g style="fill: #262626" transform="translate(484.339063 114.202069) scale(0.14 -0.14)">
       <use xlink:href="#ArialMT-31"/>
       <use xlink:href="#ArialMT-30" x="55.615234"/>
       <use xlink:href="#ArialMT-30" x="111.230469"/>
      </g>
     </g>
    </g>
    <g id="ytick_12">
     <g id="text_23">
      <!-- 150 -->
      <g style="fill: #262626" transform="translate(484.339063 62.733911) scale(0.14 -0.14)">
       <use xlink:href="#ArialMT-31"/>
       <use xlink:href="#ArialMT-35" x="55.615234"/>
       <use xlink:href="#ArialMT-30" x="111.230469"/>
      </g>
     </g>
    </g>
   </g>
   <g id="line2d_3">
    <path d="M 525.824318 212.127917 
L 527.37915 212.127917 
L 528.933982 212.127917 
L 530.488814 212.127917 
L 532.043647 212.127917 
L 533.598479 212.127917 
L 535.153311 212.127917 
L 536.708143 212.127917 
L 538.262975 212.127917 
L 539.817807 212.127917 
L 541.372639 212.127917 
L 542.927471 212.127917 
L 544.482303 212.127917 
L 546.037136 212.127917 
L 547.591968 212.127917 
L 549.1468 212.127917 
L 550.701632 212.127917 
L 552.256464 212.127917 
L 553.811296 212.127917 
L 555.366128 212.127917 
L 556.92096 212.127917 
L 558.475792 212.127917 
L 560.030624 212.127917 
L 561.585457 212.127917 
L 563.140289 212.127917 
L 564.695121 212.127917 
L 566.249953 212.127917 
L 567.804785 212.127917 
L 569.359617 212.127917 
L 570.914449 212.127917 
L 572.469281 212.127917 
L 574.024113 212.127917 
L 575.578946 212.127917 
L 577.133778 212.127917 
L 578.68861 212.127917 
L 580.243442 212.127917 
L 581.798274 212.127917 
L 583.353106 212.127917 
L 584.907938 212.127917 
L 586.46277 212.127917 
L 588.017602 212.127917 
L 589.572434 212.127917 
L 591.127267 212.127917 
L 592.682099 212.127917 
L 594.236931 212.127917 
L 595.791763 212.127917 
L 597.346595 212.127917 
L 598.901427 212.127917 
L 600.456259 212.127917 
L 602.011091 212.127917 
L 603.565923 212.127917 
L 605.120756 212.127917 
L 606.675588 212.127917 
L 608.23042 212.127917 
L 609.785252 212.127917 
L 611.340084 212.127917 
L 612.894916 212.127917 
L 614.449748 212.127917 
L 616.00458 212.127917 
L 617.559412 212.127917 
L 619.114244 212.127917 
L 620.669077 212.127917 
L 622.223909 212.127917 
L 623.778741 212.127917 
L 625.333573 212.127917 
L 626.888405 212.127917 
L 628.443237 212.127917 
L 629.998069 212.127917 
L 631.552901 212.127917 
L 633.107733 212.127917 
L 634.662566 212.127917 
L 636.217398 212.127917 
L 637.77223 212.127917 
L 639.327062 212.127917 
L 640.881894 212.127917 
L 642.436726 212.127917 
L 643.991558 212.127917 
L 645.54639 212.127917 
L 647.101222 212.127917 
L 648.656054 212.127917 
L 650.210887 212.127917 
L 651.765719 212.127917 
L 653.320551 212.127917 
L 654.875383 212.127917 
L 656.430215 212.127917 
L 657.985047 212.127917 
L 659.539879 212.127917 
L 661.094711 212.127917 
L 662.649543 212.127917 
L 664.204376 212.127917 
L 665.759208 212.127917 
L 667.31404 212.127917 
L 668.868872 212.127917 
L 670.423704 212.127917 
L 671.978536 212.127917 
L 673.533368 212.127917 
L 675.0882 212.127917 
L 676.643032 212.127917 
L 678.197864 212.127917 
L 679.752697 212.127917 
L 681.307529 212.127917 
L 682.862361 212.127917 
L 684.417193 212.127917 
L 685.972025 212.127917 
L 687.526857 212.127917 
L 689.081689 212.127917 
L 690.636521 212.127917 
L 692.191353 212.127917 
L 693.746186 212.127917 
L 695.301018 212.127917 
L 696.85585 212.127917 
L 698.410682 212.127917 
" clip-path="url(#p97f679c82c)" style="fill: none; stroke: #4c72b0; stroke-width: 1.5; stroke-linecap: round"/>
   </g>
   <g id="patch_13">
    <path d="M 517.195 212.127917 
L 517.195 30.96 
" style="fill: none; stroke: #ffffff; stroke-width: 1.25; stroke-linejoin: miter; stroke-linecap: square"/>
   </g>
   <g id="patch_14">
    <path d="M 707.04 212.127917 
L 707.04 30.96 
" style="fill: none; stroke: #ffffff; stroke-width: 1.25; stroke-linejoin: miter; stroke-linecap: square"/>
   </g>
   <g id="patch_15">
    <path d="M 517.195 212.127917 
L 707.04 212.127917 
" style="fill: none; stroke: #ffffff; stroke-width: 1.25; stroke-linejoin: miter; stroke-linecap: square"/>
   </g>
   <g id="patch_16">
    <path d="M 517.195 30.96 
L 707.04 30.96 
" style="fill: none; stroke: #ffffff; stroke-width: 1.25; stroke-linejoin: miter; stroke-linecap: square"/>
   </g>
   <g id="text_24">
    <!-- Hive 2 -->
    <g style="fill: #262626" transform="translate(589.4425 24.96) scale(0.16 -0.16)">
     <defs>
      <path id="ArialMT-32" d="M 3222 541 
L 3222 0 
L 194 0 
Q 188 203 259 391 
Q 375 700 629 1000 
Q 884 1300 1366 1694 
Q 2113 2306 2375 2664 
Q 2638 3022 2638 3341 
Q 2638 3675 2398 3904 
Q 2159 4134 1775 4134 
Q 1369 4134 1125 3890 
Q 881 3647 878 3216 
L 300 3275 
Q 359 3922 746 4261 
Q 1134 4600 1788 4600 
Q 2447 4600 2831 4234 
Q 3216 3869 3216 3328 
Q 3216 3053 3103 2787 
Q 2991 2522 2730 2228 
Q 2469 1934 1863 1422 
Q 1356 997 1212 845 
Q 1069 694 975 541 
L 3222 541 
z
" transform="scale(0.015625)"/>
     </defs>
     <use xlink:href="#ArialMT-48"/>
     <use xlink:href="#ArialMT-69" x="72.216797"/>
     <use xlink:href="#ArialMT-76" x="94.433594"/>
     <use xlink:href="#ArialMT-65" x="144.433594"/>
     <use xlink:href="#ArialMT-20" x="200.048828"/>
     <use xlink:href="#ArialMT-32" x="227.832031"/>
    </g>
   </g>
  </g>
  <g id="axes_4">
   <g id="patch_17">
    <path d="M 45.835 447.833958 
L 235.68 447.833958 
L 235.68 266.666042 
L 45.835 266.666042 
z
" style="fill: #eaeaf2"/>
   </g>
   <g id="matplotlib.axis_7">
    <g id="xtick_10">
     <g id="text_25">
      <!-- 0 -->
      <g style="fill: #262626" transform="translate(49.01683 467.354896) scale(0.14 -0.14)">
       <use xlink:href="#ArialMT-30"/>
      </g>
     </g>
    </g>
    <g id="xtick_11">
     <g id="text_26">
      <!-- 50 -->
      <g style="fill: #262626" transform="translate(122.865779 467.354896) scale(0.14 -0.14)">
       <use xlink:href="#ArialMT-35"/>
       <use xlink:href="#ArialMT-30" x="55.615234"/>
      </g>
     </g>
    </g>
    <g id="xtick_12">
     <g id="text_27">
      <!-- 100 -->
      <g style="fill: #262626" transform="translate(196.714728 467.354896) scale(0.14 -0.14)">
       <use xlink:href="#ArialMT-31"/>
       <use xlink:href="#ArialMT-30" x="55.615234"/>
       <use xlink:href="#ArialMT-30" x="111.230469"/>
      </g>
     </g>
    </g>
   </g>
   <g id="matplotlib.axis_8">
    <g id="ytick_13">
     <g id="text_28">
      <!-- 0 -->
      <g style="fill: #262626" transform="translate(28.549687 452.844427) scale(0.14 -0.14)">
       <use xlink:href="#ArialMT-30"/>
      </g>
     </g>
    </g>
    <g id="ytick_14">
     <g id="text_29">
      <!-- 50 -->
      <g style="fill: #262626" transform="translate(20.764375 401.376269) scale(0.14 -0.14)">
       <use xlink:href="#ArialMT-35"/>
       <use xlink:href="#ArialMT-30" x="55.615234"/>
      </g>
     </g>
    </g>
    <g id="ytick_15">
     <g id="text_30">
      <!-- 100 -->
      <g style="fill: #262626" transform="translate(12.979062 349.908111) scale(0.14 -0.14)">
       <use xlink:href="#ArialMT-31"/>
       <use xlink:href="#ArialMT-30" x="55.615234"/>
       <use xlink:href="#ArialMT-30" x="111.230469"/>
      </g>
     </g>
    </g>
    <g id="ytick_16">
     <g id="text_31">
      <!-- 150 -->
      <g style="fill: #262626" transform="translate(12.979062 298.439953) scale(0.14 -0.14)">
       <use xlink:href="#ArialMT-31"/>
       <use xlink:href="#ArialMT-35" x="55.615234"/>
       <use xlink:href="#ArialMT-30" x="111.230469"/>
      </g>
     </g>
    </g>
   </g>
   <g id="line2d_4">
    <path d="M 54.464318 447.833958 
L 56.01915 447.833958 
L 57.573982 447.833958 
L 59.128814 447.833958 
L 60.683647 447.833958 
L 62.238479 447.833958 
L 63.793311 447.833958 
L 65.348143 447.833958 
L 66.902975 447.833958 
L 68.457807 447.833958 
L 70.012639 447.833958 
L 71.567471 447.833958 
L 73.122303 447.833958 
L 74.677136 447.833958 
L 76.231968 447.833958 
L 77.7868 447.833958 
L 79.341632 447.833958 
L 80.896464 447.833958 
L 82.451296 447.833958 
L 84.006128 447.833958 
L 85.56096 447.833958 
L 87.115792 447.833958 
L 88.670624 447.833958 
L 90.225457 447.833958 
L 91.780289 447.833958 
L 93.335121 447.833958 
L 94.889953 447.833958 
L 96.444785 447.833958 
L 97.999617 447.833958 
L 99.554449 447.833958 
L 101.109281 447.833958 
L 102.664113 447.833958 
L 104.218946 447.833958 
L 105.773778 447.833958 
L 107.32861 447.833958 
L 108.883442 447.833958 
L 110.438274 447.833958 
L 111.993106 447.833958 
L 113.547938 447.833958 
L 115.10277 447.833958 
L 116.657602 447.833958 
L 118.212434 447.833958 
L 119.767267 447.833958 
L 121.322099 447.833958 
L 122.876931 447.833958 
L 124.431763 447.833958 
L 125.986595 447.833958 
L 127.541427 447.833958 
L 129.096259 447.833958 
L 130.651091 447.833958 
L 132.205923 447.833958 
L 133.760756 447.833958 
L 135.315588 447.833958 
L 136.87042 447.833958 
L 138.425252 447.833958 
L 139.980084 447.833958 
L 141.534916 447.833958 
L 143.089748 447.833958 
L 144.64458 447.833958 
L 146.199412 447.833958 
L 147.754244 447.833958 
L 149.309077 447.833958 
L 150.863909 447.833958 
L 152.418741 447.833958 
L 153.973573 447.833958 
L 155.528405 447.833958 
L 157.083237 447.833958 
L 158.638069 447.833958 
L 160.192901 447.833958 
L 161.747733 447.833958 
L 163.302566 447.833958 
L 164.857398 447.833958 
L 166.41223 447.833958 
L 167.967062 447.833958 
L 169.521894 447.833958 
L 171.076726 447.833958 
L 172.631558 447.833958 
L 174.18639 447.833958 
L 175.741222 447.833958 
L 177.296054 447.833958 
L 178.850887 447.833958 
L 180.405719 447.833958 
L 181.960551 447.833958 
L 183.515383 447.833958 
L 185.070215 447.833958 
L 186.625047 447.833958 
L 188.179879 447.833958 
L 189.734711 447.833958 
L 191.289543 447.833958 
L 192.844376 447.833958 
L 194.399208 447.833958 
L 195.95404 447.833958 
L 197.508872 447.833958 
L 199.063704 447.833958 
L 200.618536 447.833958 
L 202.173368 447.833958 
L 203.7282 447.833958 
L 205.283032 447.833958 
L 206.837864 447.833958 
L 208.392697 447.833958 
L 209.947529 447.833958 
L 211.502361 447.833958 
L 213.057193 447.833958 
L 214.612025 447.833958 
L 216.166857 447.833958 
L 217.721689 447.833958 
L 219.276521 447.833958 
L 220.831353 447.833958 
L 222.386186 447.833958 
L 223.941018 447.833958 
L 225.49585 447.833958 
L 227.050682 447.833958 
" clip-path="url(#p619a2ef86f)" style="fill: none; stroke: #4c72b0; stroke-width: 1.5; stroke-linecap: round"/>
   </g>
   <g id="patch_18">
    <path d="M 45.835 447.833958 
L 45.835 266.666042 
" style="fill: none; stroke: #ffffff; stroke-width: 1.25; stroke-linejoin: miter; stroke-linecap: square"/>
   </g>
   <g id="patch_19">
    <path d="M 235.68 447.833958 
L 235.68 266.666042 
" style="fill: none; stroke: #ffffff; stroke-width: 1.25; stroke-linejoin: miter; stroke-linecap: square"/>
   </g>
   <g id="patch_20">
    <path d="M 45.835 447.833958 
L 235.68 447.833958 
" style="fill: none; stroke: #ffffff; stroke-width: 1.25; stroke-linejoin: miter; stroke-linecap: square"/>
   </g>
   <g id="patch_21">
    <path d="M 45.835 266.666042 
L 235.68 266.666042 
" style="fill: none; stroke: #ffffff; stroke-width: 1.25; stroke-linejoin: miter; stroke-linecap: square"/>
   </g>
   <g id="text_32">
    <!-- Hive 3 -->
    <g style="fill: #262626" transform="translate(118.0825 260.666042) scale(0.16 -0.16)">
     <defs>
      <path id="ArialMT-33" d="M 269 1209 
L 831 1284 
Q 928 806 1161 595 
Q 1394 384 1728 384 
Q 2125 384 2398 659 
Q 2672 934 2672 1341 
Q 2672 1728 2419 1979 
Q 2166 2231 1775 2231 
Q 1616 2231 1378 2169 
L 1441 2663 
Q 1497 2656 1531 2656 
Q 1891 2656 2178 2843 
Q 2466 3031 2466 3422 
Q 2466 3731 2256 3934 
Q 2047 4138 1716 4138 
Q 1388 4138 1169 3931 
Q 950 3725 888 3313 
L 325 3413 
Q 428 3978 793 4289 
Q 1159 4600 1703 4600 
Q 2078 4600 2393 4439 
Q 2709 4278 2876 4000 
Q 3044 3722 3044 3409 
Q 3044 3113 2884 2869 
Q 2725 2625 2413 2481 
Q 2819 2388 3044 2092 
Q 3269 1797 3269 1353 
Q 3269 753 2831 336 
Q 2394 -81 1725 -81 
Q 1122 -81 723 278 
Q 325 638 269 1209 
z
" transform="scale(0.015625)"/>
     </defs>
     <use xlink:href="#ArialMT-48"/>
     <use xlink:href="#ArialMT-69" x="72.216797"/>
     <use xlink:href="#ArialMT-76" x="94.433594"/>
     <use xlink:href="#ArialMT-65" x="144.433594"/>
     <use xlink:href="#ArialMT-20" x="200.048828"/>
     <use xlink:href="#ArialMT-33" x="227.832031"/>
    </g>
   </g>
  </g>
  <g id="axes_5">
   <g id="patch_22">
    <path d="M 281.515 447.833958 
L 471.36 447.833958 
L 471.36 266.666042 
L 281.515 266.666042 
z
" style="fill: #eaeaf2"/>
   </g>
   <g id="matplotlib.axis_9">
    <g id="xtick_13">
     <g id="text_33">
      <!-- 0 -->
      <g style="fill: #262626" transform="translate(284.69683 467.354896) scale(0.14 -0.14)">
       <use xlink:href="#ArialMT-30"/>
      </g>
     </g>
    </g>
    <g id="xtick_14">
     <g id="text_34">
      <!-- 50 -->
      <g style="fill: #262626" transform="translate(358.545779 467.354896) scale(0.14 -0.14)">
       <use xlink:href="#ArialMT-35"/>
       <use xlink:href="#ArialMT-30" x="55.615234"/>
      </g>
     </g>
    </g>
    <g id="xtick_15">
     <g id="text_35">
      <!-- 100 -->
      <g style="fill: #262626" transform="translate(432.394728 467.354896) scale(0.14 -0.14)">
       <use xlink:href="#ArialMT-31"/>
       <use xlink:href="#ArialMT-30" x="55.615234"/>
       <use xlink:href="#ArialMT-30" x="111.230469"/>
      </g>
     </g>
    </g>
   </g>
   <g id="matplotlib.axis_10">
    <g id="ytick_17">
     <g id="text_36">
      <!-- 0 -->
      <g style="fill: #262626" transform="translate(264.229688 452.844427) scale(0.14 -0.14)">
       <use xlink:href="#ArialMT-30"/>
      </g>
     </g>
    </g>
    <g id="ytick_18">
     <g id="text_37">
      <!-- 50 -->
      <g style="fill: #262626" transform="translate(256.444375 401.376269) scale(0.14 -0.14)">
       <use xlink:href="#ArialMT-35"/>
       <use xlink:href="#ArialMT-30" x="55.615234"/>
      </g>
     </g>
    </g>
    <g id="ytick_19">
     <g id="text_38">
      <!-- 100 -->
      <g style="fill: #262626" transform="translate(248.659063 349.908111) scale(0.14 -0.14)">
       <use xlink:href="#ArialMT-31"/>
       <use xlink:href="#ArialMT-30" x="55.615234"/>
       <use xlink:href="#ArialMT-30" x="111.230469"/>
      </g>
     </g>
    </g>
    <g id="ytick_20">
     <g id="text_39">
      <!-- 150 -->
      <g style="fill: #262626" transform="translate(248.659063 298.439953) scale(0.14 -0.14)">
       <use xlink:href="#ArialMT-31"/>
       <use xlink:href="#ArialMT-35" x="55.615234"/>
       <use xlink:href="#ArialMT-30" x="111.230469"/>
      </g>
     </g>
    </g>
   </g>
   <g id="line2d_5">
    <path d="M 290.144318 447.833958 
L 291.69915 447.833958 
L 293.253982 447.833958 
L 294.808814 447.833958 
L 296.363647 447.833958 
L 297.918479 447.833958 
L 299.473311 447.833958 
L 301.028143 447.833958 
L 302.582975 447.833958 
L 304.137807 447.833958 
L 305.692639 447.833958 
L 307.247471 447.833958 
L 308.802303 447.833958 
L 310.357136 447.833958 
L 311.911968 447.833958 
L 313.4668 447.833958 
L 315.021632 447.833958 
L 316.576464 447.833958 
L 318.131296 447.833958 
L 319.686128 447.833958 
L 321.24096 447.833958 
L 322.795792 447.833958 
L 324.350624 447.833958 
L 325.905457 447.833958 
L 327.460289 447.833958 
L 329.015121 447.833958 
L 330.569953 447.833958 
L 332.124785 447.833958 
L 333.679617 447.833958 
L 335.234449 447.833958 
L 336.789281 447.833958 
L 338.344113 447.833958 
L 339.898946 447.833958 
L 341.453778 447.833958 
L 343.00861 447.833958 
L 344.563442 447.833958 
L 346.118274 447.833958 
L 347.673106 447.833958 
L 349.227938 447.833958 
L 350.78277 447.833958 
L 352.337602 447.833958 
L 353.892434 447.833958 
L 355.447267 447.833958 
L 357.002099 447.833958 
L 358.556931 447.833958 
L 360.111763 447.833958 
L 361.666595 447.833958 
L 363.221427 447.833958 
L 364.776259 447.833958 
L 366.331091 447.833958 
L 367.885923 447.833958 
L 369.440756 447.833958 
L 370.995588 447.833958 
L 372.55042 447.833958 
L 374.105252 447.833958 
L 375.660084 447.833958 
L 377.214916 447.833958 
L 378.769748 447.833958 
L 380.32458 447.833958 
L 381.879412 447.833958 
L 383.434244 447.833958 
L 384.989077 447.833958 
L 386.543909 447.833958 
L 388.098741 447.833958 
L 389.653573 447.833958 
L 391.208405 447.833958 
L 392.763237 447.833958 
L 394.318069 447.833958 
L 395.872901 447.833958 
L 397.427733 447.833958 
L 398.982566 447.833958 
L 400.537398 447.833958 
L 402.09223 447.833958 
L 403.647062 447.833958 
L 405.201894 447.833958 
L 406.756726 447.833958 
L 408.311558 447.833958 
L 409.86639 447.833958 
L 411.421222 447.833958 
L 412.976054 447.833958 
L 414.530887 447.833958 
L 416.085719 447.833958 
L 417.640551 447.833958 
L 419.195383 447.833958 
L 420.750215 447.833958 
L 422.305047 447.833958 
L 423.859879 447.833958 
L 425.414711 447.833958 
L 426.969543 447.833958 
L 428.524376 447.833958 
L 430.079208 447.833958 
L 431.63404 447.833958 
L 433.188872 447.833958 
L 434.743704 447.833958 
L 436.298536 447.833958 
L 437.853368 447.833958 
L 439.4082 447.833958 
L 440.963032 447.833958 
L 442.517864 447.833958 
L 444.072697 447.833958 
L 445.627529 447.833958 
L 447.182361 447.833958 
L 448.737193 447.833958 
L 450.292025 447.833958 
L 451.846857 447.833958 
L 453.401689 447.833958 
L 454.956521 447.833958 
L 456.511353 447.833958 
L 458.066186 447.833958 
L 459.621018 447.833958 
L 461.17585 447.833958 
L 462.730682 447.833958 
" clip-path="url(#pa0462b1d44)" style="fill: none; stroke: #4c72b0; stroke-width: 1.5; stroke-linecap: round"/>
   </g>
   <g id="patch_23">
    <path d="M 281.515 447.833958 
L 281.515 266.666042 
" style="fill: none; stroke: #ffffff; stroke-width: 1.25; stroke-linejoin: miter; stroke-linecap: square"/>
   </g>
   <g id="patch_24">
    <path d="M 471.36 447.833958 
L 471.36 266.666042 
" style="fill: none; stroke: #ffffff; stroke-width: 1.25; stroke-linejoin: miter; stroke-linecap: square"/>
   </g>
   <g id="patch_25">
    <path d="M 281.515 447.833958 
L 471.36 447.833958 
" style="fill: none; stroke: #ffffff; stroke-width: 1.25; stroke-linejoin: miter; stroke-linecap: square"/>
   </g>
   <g id="patch_26">
    <path d="M 281.515 266.666042 
L 471.36 266.666042 
" style="fill: none; stroke: #ffffff; stroke-width: 1.25; stroke-linejoin: miter; stroke-linecap: square"/>
   </g>
   <g id="text_40">
    <!-- Hive 4 -->
    <g style="fill: #262626" transform="translate(353.7625 260.666042) scale(0.16 -0.16)">
     <defs>
      <path id="ArialMT-34" d="M 2069 0 
L 2069 1097 
L 81 1097 
L 81 1613 
L 2172 4581 
L 2631 4581 
L 2631 1613 
L 3250 1613 
L 3250 1097 
L 2631 1097 
L 2631 0 
L 2069 0 
z
M 2069 1613 
L 2069 3678 
L 634 1613 
L 2069 1613 
z
" transform="scale(0.015625)"/>
     </defs>
     <use xlink:href="#ArialMT-48"/>
     <use xlink:href="#ArialMT-69" x="72.216797"/>
     <use xlink:href="#ArialMT-76" x="94.433594"/>
     <use xlink:href="#ArialMT-65" x="144.433594"/>
     <use xlink:href="#ArialMT-20" x="200.048828"/>
     <use xlink:href="#ArialMT-34" x="227.832031"/>
    </g>
   </g>
  </g>
  <g id="axes_6">
   <g id="patch_27">
    <path d="M 517.195 447.833958 
L 707.04 447.833958 
L 707.04 266.666042 
L 517.195 266.666042 
z
" style="fill: #eaeaf2"/>
   </g>
   <g id="matplotlib.axis_11">
    <g id="xtick_16">
     <g id="text_41">
      <!-- 0 -->
      <g style="fill: #262626" transform="translate(520.37683 467.354896) scale(0.14 -0.14)">
       <use xlink:href="#ArialMT-30"/>
      </g>
     </g>
    </g>
    <g id="xtick_17">
     <g id="text_42">
      <!-- 50 -->
      <g style="fill: #262626" transform="translate(594.225779 467.354896) scale(0.14 -0.14)">
       <use xlink:href="#ArialMT-35"/>
       <use xlink:href="#ArialMT-30" x="55.615234"/>
      </g>
     </g>
    </g>
    <g id="xtick_18">
     <g id="text_43">
      <!-- 100 -->
      <g style="fill: #262626" transform="translate(668.074728 467.354896) scale(0.14 -0.14)">
       <use xlink:href="#ArialMT-31"/>
       <use xlink:href="#ArialMT-30" x="55.615234"/>
       <use xlink:href="#ArialMT-30" x="111.230469"/>
      </g>
     </g>
    </g>
   </g>
   <g id="matplotlib.axis_12">
    <g id="ytick_21">
     <g id="text_44">
      <!-- 0 -->
      <g style="fill: #262626" transform="translate(499.909688 452.844427) scale(0.14 -0.14)">
       <use xlink:href="#ArialMT-30"/>
      </g>
     </g>
    </g>
    <g id="ytick_22">
     <g id="text_45">
      <!-- 50 -->
      <g style="fill: #262626" transform="translate(492.124375 401.376269) scale(0.14 -0.14)">
       <use xlink:href="#ArialMT-35"/>
       <use xlink:href="#ArialMT-30" x="55.615234"/>
      </g>
     </g>
    </g>
    <g id="ytick_23">
     <g id="text_46">
      <!-- 100 -->
      <g style="fill: #262626" transform="translate(484.339063 349.908111) scale(0.14 -0.14)">
       <use xlink:href="#ArialMT-31"/>
       <use xlink:href="#ArialMT-30" x="55.615234"/>
       <use xlink:href="#ArialMT-30" x="111.230469"/>
      </g>
     </g>
    </g>
    <g id="ytick_24">
     <g id="text_47">
      <!-- 150 -->
      <g style="fill: #262626" transform="translate(484.339063 298.439953) scale(0.14 -0.14)">
       <use xlink:href="#ArialMT-31"/>
       <use xlink:href="#ArialMT-35" x="55.615234"/>
       <use xlink:href="#ArialMT-30" x="111.230469"/>
      </g>
     </g>
    </g>
   </g>
   <g id="line2d_6">
    <path d="M 525.824318 447.833958 
L 527.37915 447.833958 
L 528.933982 447.833958 
L 530.488814 447.833958 
L 532.043647 447.833958 
L 533.598479 447.833958 
L 535.153311 447.833958 
L 536.708143 447.833958 
L 538.262975 447.833958 
L 539.817807 447.833958 
L 541.372639 447.833958 
L 542.927471 447.833958 
L 544.482303 447.833958 
L 546.037136 447.833958 
L 547.591968 447.833958 
L 549.1468 447.833958 
L 550.701632 447.833958 
L 552.256464 447.833958 
L 553.811296 447.833958 
L 555.366128 447.833958 
L 556.92096 447.833958 
L 558.475792 447.833958 
L 560.030624 447.833958 
L 561.585457 447.833958 
L 563.140289 447.833958 
L 564.695121 447.833958 
L 566.249953 447.833958 
L 567.804785 447.833958 
L 569.359617 447.833958 
L 570.914449 447.833958 
L 572.469281 447.833958 
L 574.024113 447.833958 
L 575.578946 447.833958 
L 577.133778 447.833958 
L 578.68861 447.833958 
L 580.243442 447.833958 
L 581.798274 447.833958 
L 583.353106 447.833958 
L 584.907938 447.833958 
L 586.46277 447.833958 
L 588.017602 447.833958 
L 589.572434 447.833958 
L 591.127267 447.833958 
L 592.682099 447.833958 
L 594.236931 447.833958 
L 595.791763 447.833958 
L 597.346595 447.833958 
L 598.901427 447.833958 
L 600.456259 447.833958 
L 602.011091 447.833958 
L 603.565923 447.833958 
L 605.120756 447.833958 
L 606.675588 447.833958 
L 608.23042 447.833958 
L 609.785252 447.833958 
L 611.340084 447.833958 
L 612.894916 447.833958 
L 614.449748 447.833958 
L 616.00458 447.833958 
L 617.559412 447.833958 
L 619.114244 447.833958 
L 620.669077 447.833958 
L 622.223909 447.833958 
L 623.778741 447.833958 
L 625.333573 447.833958 
L 626.888405 447.833958 
L 628.443237 447.833958 
L 629.998069 447.833958 
L 631.552901 447.833958 
L 633.107733 447.833958 
L 634.662566 447.833958 
L 636.217398 447.833958 
L 637.77223 447.833958 
L 639.327062 447.833958 
L 640.881894 447.833958 
L 642.436726 447.833958 
L 643.991558 447.833958 
L 645.54639 447.833958 
L 647.101222 447.833958 
L 648.656054 447.833958 
L 650.210887 447.833958 
L 651.765719 447.833958 
L 653.320551 447.833958 
L 654.875383 447.833958 
L 656.430215 447.833958 
L 657.985047 447.833958 
L 659.539879 447.833958 
L 661.094711 447.833958 
L 662.649543 447.833958 
L 664.204376 447.833958 
L 665.759208 447.833958 
L 667.31404 447.833958 
L 668.868872 447.833958 
L 670.423704 447.833958 
L 671.978536 447.833958 
L 673.533368 447.833958 
L 675.0882 447.833958 
L 676.643032 447.833958 
L 678.197864 447.833958 
L 679.752697 447.833958 
L 681.307529 447.833958 
L 682.862361 447.833958 
L 684.417193 447.833958 
L 685.972025 447.833958 
L 687.526857 447.833958 
L 689.081689 447.833958 
L 690.636521 447.833958 
L 692.191353 447.833958 
L 693.746186 447.833958 
L 695.301018 447.833958 
L 696.85585 447.833958 
L 698.410682 447.833958 
" clip-path="url(#pa37885f31b)" style="fill: none; stroke: #4c72b0; stroke-width: 1.5; stroke-linecap: round"/>
   </g>
   <g id="patch_28">
    <path d="M 517.195 447.833958 
L 517.195 266.666042 
" style="fill: none; stroke: #ffffff; stroke-width: 1.25; stroke-linejoin: miter; stroke-linecap: square"/>
   </g>
   <g id="patch_29">
    <path d="M 707.04 447.833958 
L 707.04 266.666042 
" style="fill: none; stroke: #ffffff; stroke-width: 1.25; stroke-linejoin: miter; stroke-linecap: square"/>
   </g>
   <g id="patch_30">
    <path d="M 517.195 447.833958 
L 707.04 447.833958 
" style="fill: none; stroke: #ffffff; stroke-width: 1.25; stroke-linejoin: miter; stroke-linecap: square"/>
   </g>
   <g id="patch_31">
    <path d="M 517.195 266.666042 
L 707.04 266.666042 
" style="fill: none; stroke: #ffffff; stroke-width: 1.25; stroke-linejoin: miter; stroke-linecap: square"/>
   </g>
   <g id="text_48">
    <!-- Hive 5 -->
    <g style="fill: #262626" transform="translate(589.4425 260.666042) scale(0.16 -0.16)">
     <use xlink:href="#ArialMT-48"/>
     <use xlink:href="#ArialMT-69" x="72.216797"/>
     <use xlink:href="#ArialMT-76" x="94.433594"/>
     <use xlink:href="#ArialMT-65" x="144.433594"/>
     <use xlink:href="#ArialMT-20" x="200.048828"/>
     <use xlink:href="#ArialMT-35" x="227.832031"/>
    </g>
   </g>
  </g>
  <g id="axes_7">
   <g id="patch_32">
    <path d="M 45.835 683.54 
L 235.68 683.54 
L 235.68 502.372083 
L 45.835 502.372083 
z
" style="fill: #eaeaf2"/>
   </g>
   <g id="matplotlib.axis_13">
    <g id="xtick_19">
     <g id="text_49">
      <!-- 0 -->
      <g style="fill: #262626" transform="translate(49.01683 703.060938) scale(0.14 -0.14)">
       <use xlink:href="#ArialMT-30"/>
      </g>
     </g>
    </g>
    <g id="xtick_20">
     <g id="text_50">
      <!-- 50 -->
      <g style="fill: #262626" transform="translate(122.865779 703.060938) scale(0.14 -0.14)">
       <use xlink:href="#ArialMT-35"/>
       <use xlink:href="#ArialMT-30" x="55.615234"/>
      </g>
     </g>
    </g>
    <g id="xtick_21">
     <g id="text_51">
      <!-- 100 -->
      <g style="fill: #262626" transform="translate(196.714728 703.060938) scale(0.14 -0.14)">
       <use xlink:href="#ArialMT-31"/>
       <use xlink:href="#ArialMT-30" x="55.615234"/>
       <use xlink:href="#ArialMT-30" x="111.230469"/>
      </g>
     </g>
    </g>
   </g>
   <g id="matplotlib.axis_14">
    <g id="ytick_25">
     <g id="text_52">
      <!-- 0 -->
      <g style="fill: #262626" transform="translate(28.549687 688.550469) scale(0.14 -0.14)">
       <use xlink:href="#ArialMT-30"/>
      </g>
     </g>
    </g>
    <g id="ytick_26">
     <g id="text_53">
      <!-- 50 -->
      <g style="fill: #262626" transform="translate(20.764375 637.082311) scale(0.14 -0.14)">
       <use xlink:href="#ArialMT-35"/>
       <use xlink:href="#ArialMT-30" x="55.615234"/>
      </g>
     </g>
    </g>
    <g id="ytick_27">
     <g id="text_54">
      <!-- 100 -->
      <g style="fill: #262626" transform="translate(12.979062 585.614152) scale(0.14 -0.14)">
       <use xlink:href="#ArialMT-31"/>
       <use xlink:href="#ArialMT-30" x="55.615234"/>
       <use xlink:href="#ArialMT-30" x="111.230469"/>
      </g>
     </g>
    </g>
    <g id="ytick_28">
     <g id="text_55">
      <!-- 150 -->
      <g style="fill: #262626" transform="translate(12.979062 534.145994) scale(0.14 -0.14)">
       <use xlink:href="#ArialMT-31"/>
       <use xlink:href="#ArialMT-35" x="55.615234"/>
       <use xlink:href="#ArialMT-30" x="111.230469"/>
      </g>
     </g>
    </g>
   </g>
   <g id="line2d_7">
    <path d="M 54.464318 680.451911 
L 56.01915 680.451911 
L 57.573982 680.451911 
L 59.128814 680.451911 
L 60.683647 680.451911 
L 62.238479 680.451911 
L 63.793311 680.451911 
L 65.348143 680.451911 
L 66.902975 680.451911 
L 68.457807 680.451911 
L 70.012639 680.451911 
L 71.567471 680.451911 
L 73.122303 680.451911 
L 74.677136 680.451911 
L 76.231968 680.451911 
L 77.7868 679.422547 
L 79.341632 677.363821 
L 80.896464 675.305095 
L 82.451296 675.305095 
L 84.006128 675.305095 
L 85.56096 675.305095 
L 87.115792 675.305095 
L 88.670624 675.305095 
L 90.225457 675.305095 
L 91.780289 675.305095 
L 93.335121 675.305095 
L 94.889953 675.305095 
L 96.444785 675.305095 
L 97.999617 675.305095 
L 99.554449 675.305095 
L 101.109281 675.305095 
L 102.664113 675.305095 
L 104.218946 675.305095 
L 105.773778 675.305095 
L 107.32861 675.305095 
L 108.883442 673.246368 
L 110.438274 671.187642 
L 111.993106 671.187642 
L 113.547938 671.187642 
L 115.10277 671.187642 
L 116.657602 671.187642 
L 118.212434 671.187642 
L 119.767267 671.187642 
L 121.322099 671.187642 
L 122.876931 671.187642 
L 124.431763 671.187642 
L 125.986595 671.187642 
L 127.541427 671.187642 
L 129.096259 667.070189 
L 130.651091 662.952737 
L 132.205923 658.835284 
L 133.760756 658.835284 
L 135.315588 658.835284 
L 136.87042 658.835284 
L 138.425252 657.805921 
L 139.980084 656.776558 
L 141.534916 656.776558 
L 143.089748 656.776558 
L 144.64458 656.776558 
L 146.199412 656.776558 
L 147.754244 656.776558 
L 149.309077 656.776558 
L 150.863909 656.776558 
L 152.418741 656.776558 
L 153.973573 656.776558 
L 155.528405 656.776558 
L 157.083237 656.776558 
L 158.638069 652.659105 
L 160.192901 644.4242 
L 161.747733 636.189295 
L 163.302566 636.189295 
L 164.857398 636.189295 
L 166.41223 636.189295 
L 167.967062 636.189295 
L 169.521894 636.189295 
L 171.076726 636.189295 
L 172.631558 636.189295 
L 174.18639 636.189295 
L 175.741222 636.189295 
L 177.296054 636.189295 
L 178.850887 636.189295 
L 180.405719 627.954389 
L 181.960551 619.719484 
L 183.515383 612.513942 
L 185.070215 612.513942 
L 186.625047 612.513942 
L 188.179879 610.455215 
L 189.734711 600.161584 
L 191.289543 589.867952 
L 192.844376 589.867952 
L 194.399208 589.867952 
L 195.95404 589.867952 
L 197.508872 589.867952 
L 199.063704 589.867952 
L 200.618536 589.867952 
L 202.173368 589.867952 
L 203.7282 589.867952 
L 205.283032 589.867952 
L 206.837864 589.867952 
L 208.392697 589.867952 
L 209.947529 573.398142 
L 211.502361 548.693426 
L 213.057193 525.018073 
L 214.612025 525.018073 
L 216.166857 525.018073 
L 217.721689 525.018073 
L 219.276521 518.841894 
L 220.831353 512.665715 
L 222.386186 512.665715 
L 223.941018 512.665715 
L 225.49585 683.54 
L 227.050682 683.54 
" clip-path="url(#p6bba62d96c)" style="fill: none; stroke: #4c72b0; stroke-width: 1.5; stroke-linecap: round"/>
   </g>
   <g id="patch_33">
    <path d="M 45.835 683.54 
L 45.835 502.372083 
" style="fill: none; stroke: #ffffff; stroke-width: 1.25; stroke-linejoin: miter; stroke-linecap: square"/>
   </g>
   <g id="patch_34">
    <path d="M 235.68 683.54 
L 235.68 502.372083 
" style="fill: none; stroke: #ffffff; stroke-width: 1.25; stroke-linejoin: miter; stroke-linecap: square"/>
   </g>
   <g id="patch_35">
    <path d="M 45.835 683.54 
L 235.68 683.54 
" style="fill: none; stroke: #ffffff; stroke-width: 1.25; stroke-linejoin: miter; stroke-linecap: square"/>
   </g>
   <g id="patch_36">
    <path d="M 45.835 502.372083 
L 235.68 502.372083 
" style="fill: none; stroke: #ffffff; stroke-width: 1.25; stroke-linejoin: miter; stroke-linecap: square"/>
   </g>
   <g id="text_56">
    <!-- Hive 6 (initial) (eliminated) -->
    <g style="fill: #262626" transform="translate(48.29 496.372083) scale(0.16 -0.16)">
     <defs>
      <path id="ArialMT-36" d="M 3184 3459 
L 2625 3416 
Q 2550 3747 2413 3897 
Q 2184 4138 1850 4138 
Q 1581 4138 1378 3988 
Q 1113 3794 959 3422 
Q 806 3050 800 2363 
Q 1003 2672 1297 2822 
Q 1591 2972 1913 2972 
Q 2475 2972 2870 2558 
Q 3266 2144 3266 1488 
Q 3266 1056 3080 686 
Q 2894 316 2569 119 
Q 2244 -78 1831 -78 
Q 1128 -78 684 439 
Q 241 956 241 2144 
Q 241 3472 731 4075 
Q 1159 4600 1884 4600 
Q 2425 4600 2770 4297 
Q 3116 3994 3184 3459 
z
M 888 1484 
Q 888 1194 1011 928 
Q 1134 663 1356 523 
Q 1578 384 1822 384 
Q 2178 384 2434 671 
Q 2691 959 2691 1453 
Q 2691 1928 2437 2201 
Q 2184 2475 1800 2475 
Q 1419 2475 1153 2201 
Q 888 1928 888 1484 
z
" transform="scale(0.015625)"/>
      <path id="ArialMT-28" d="M 1497 -1347 
Q 1031 -759 709 28 
Q 388 816 388 1659 
Q 388 2403 628 3084 
Q 909 3875 1497 4659 
L 1900 4659 
Q 1522 4009 1400 3731 
Q 1209 3300 1100 2831 
Q 966 2247 966 1656 
Q 966 153 1900 -1347 
L 1497 -1347 
z
" transform="scale(0.015625)"/>
      <path id="ArialMT-6e" d="M 422 0 
L 422 3319 
L 928 3319 
L 928 2847 
Q 1294 3394 1984 3394 
Q 2284 3394 2536 3286 
Q 2788 3178 2913 3003 
Q 3038 2828 3088 2588 
Q 3119 2431 3119 2041 
L 3119 0 
L 2556 0 
L 2556 2019 
Q 2556 2363 2490 2533 
Q 2425 2703 2258 2804 
Q 2091 2906 1866 2906 
Q 1506 2906 1245 2678 
Q 984 2450 984 1813 
L 984 0 
L 422 0 
z
" transform="scale(0.015625)"/>
      <path id="ArialMT-74" d="M 1650 503 
L 1731 6 
Q 1494 -44 1306 -44 
Q 1000 -44 831 53 
Q 663 150 594 308 
Q 525 466 525 972 
L 525 2881 
L 113 2881 
L 113 3319 
L 525 3319 
L 525 4141 
L 1084 4478 
L 1084 3319 
L 1650 3319 
L 1650 2881 
L 1084 2881 
L 1084 941 
Q 1084 700 1114 631 
Q 1144 563 1211 522 
Q 1278 481 1403 481 
Q 1497 481 1650 503 
z
" transform="scale(0.015625)"/>
      <path id="ArialMT-61" d="M 2588 409 
Q 2275 144 1986 34 
Q 1697 -75 1366 -75 
Q 819 -75 525 192 
Q 231 459 231 875 
Q 231 1119 342 1320 
Q 453 1522 633 1644 
Q 813 1766 1038 1828 
Q 1203 1872 1538 1913 
Q 2219 1994 2541 2106 
Q 2544 2222 2544 2253 
Q 2544 2597 2384 2738 
Q 2169 2928 1744 2928 
Q 1347 2928 1158 2789 
Q 969 2650 878 2297 
L 328 2372 
Q 403 2725 575 2942 
Q 747 3159 1072 3276 
Q 1397 3394 1825 3394 
Q 2250 3394 2515 3294 
Q 2781 3194 2906 3042 
Q 3031 2891 3081 2659 
Q 3109 2516 3109 2141 
L 3109 1391 
Q 3109 606 3145 398 
Q 3181 191 3288 0 
L 2700 0 
Q 2613 175 2588 409 
z
M 2541 1666 
Q 2234 1541 1622 1453 
Q 1275 1403 1131 1340 
Q 988 1278 909 1158 
Q 831 1038 831 891 
Q 831 666 1001 516 
Q 1172 366 1500 366 
Q 1825 366 2078 508 
Q 2331 650 2450 897 
Q 2541 1088 2541 1459 
L 2541 1666 
z
" transform="scale(0.015625)"/>
      <path id="ArialMT-6c" d="M 409 0 
L 409 4581 
L 972 4581 
L 972 0 
L 409 0 
z
" transform="scale(0.015625)"/>
      <path id="ArialMT-29" d="M 791 -1347 
L 388 -1347 
Q 1322 153 1322 1656 
Q 1322 2244 1188 2822 
Q 1081 3291 891 3722 
Q 769 4003 388 4659 
L 791 4659 
Q 1378 3875 1659 3084 
Q 1900 2403 1900 1659 
Q 1900 816 1576 28 
Q 1253 -759 791 -1347 
z
" transform="scale(0.015625)"/>
      <path id="ArialMT-6d" d="M 422 0 
L 422 3319 
L 925 3319 
L 925 2853 
Q 1081 3097 1340 3245 
Q 1600 3394 1931 3394 
Q 2300 3394 2536 3241 
Q 2772 3088 2869 2813 
Q 3263 3394 3894 3394 
Q 4388 3394 4653 3120 
Q 4919 2847 4919 2278 
L 4919 0 
L 4359 0 
L 4359 2091 
Q 4359 2428 4304 2576 
Q 4250 2725 4106 2815 
Q 3963 2906 3769 2906 
Q 3419 2906 3187 2673 
Q 2956 2441 2956 1928 
L 2956 0 
L 2394 0 
L 2394 2156 
Q 2394 2531 2256 2718 
Q 2119 2906 1806 2906 
Q 1569 2906 1367 2781 
Q 1166 2656 1075 2415 
Q 984 2175 984 1722 
L 984 0 
L 422 0 
z
" transform="scale(0.015625)"/>
      <path id="ArialMT-64" d="M 2575 0 
L 2575 419 
Q 2259 -75 1647 -75 
Q 1250 -75 917 144 
Q 584 363 401 755 
Q 219 1147 219 1656 
Q 219 2153 384 2558 
Q 550 2963 881 3178 
Q 1213 3394 1622 3394 
Q 1922 3394 2156 3267 
Q 2391 3141 2538 2938 
L 2538 4581 
L 3097 4581 
L 3097 0 
L 2575 0 
z
M 797 1656 
Q 797 1019 1065 703 
Q 1334 388 1700 388 
Q 2069 388 2326 689 
Q 2584 991 2584 1609 
Q 2584 2291 2321 2609 
Q 2059 2928 1675 2928 
Q 1300 2928 1048 2622 
Q 797 2316 797 1656 
z
" transform="scale(0.015625)"/>
     </defs>
     <use xlink:href="#ArialMT-48"/>
     <use xlink:href="#ArialMT-69" x="72.216797"/>
     <use xlink:href="#ArialMT-76" x="94.433594"/>
     <use xlink:href="#ArialMT-65" x="144.433594"/>
     <use xlink:href="#ArialMT-20" x="200.048828"/>
     <use xlink:href="#ArialMT-36" x="227.832031"/>
     <use xlink:href="#ArialMT-20" x="283.447266"/>
     <use xlink:href="#ArialMT-28" x="311.230469"/>
     <use xlink:href="#ArialMT-69" x="344.53125"/>
     <use xlink:href="#ArialMT-6e" x="366.748047"/>
     <use xlink:href="#ArialMT-69" x="422.363281"/>
     <use xlink:href="#ArialMT-74" x="444.580078"/>
     <use xlink:href="#ArialMT-69" x="472.363281"/>
     <use xlink:href="#ArialMT-61" x="494.580078"/>
     <use xlink:href="#ArialMT-6c" x="550.195312"/>
     <use xlink:href="#ArialMT-29" x="572.412109"/>
     <use xlink:href="#ArialMT-20" x="605.712891"/>
     <use xlink:href="#ArialMT-28" x="633.496094"/>
     <use xlink:href="#ArialMT-65" x="666.796875"/>
     <use xlink:href="#ArialMT-6c" x="722.412109"/>
     <use xlink:href="#ArialMT-69" x="744.628906"/>
     <use xlink:href="#ArialMT-6d" x="766.845703"/>
     <use xlink:href="#ArialMT-69" x="850.146484"/>
     <use xlink:href="#ArialMT-6e" x="872.363281"/>
     <use xlink:href="#ArialMT-61" x="927.978516"/>
     <use xlink:href="#ArialMT-74" x="983.59375"/>
     <use xlink:href="#ArialMT-65" x="1011.376953"/>
     <use xlink:href="#ArialMT-64" x="1066.992188"/>
     <use xlink:href="#ArialMT-29" x="1122.607422"/>
    </g>
   </g>
  </g>
  <g id="axes_8">
   <g id="patch_37">
    <path d="M 281.515 683.54 
L 471.36 683.54 
L 471.36 502.372083 
L 281.515 502.372083 
z
" style="fill: #eaeaf2"/>
   </g>
   <g id="matplotlib.axis_15">
    <g id="xtick_22">
     <g id="text_57">
      <!-- 0 -->
      <g style="fill: #262626" transform="translate(284.69683 703.060938) scale(0.14 -0.14)">
       <use xlink:href="#ArialMT-30"/>
      </g>
     </g>
    </g>
    <g id="xtick_23">
     <g id="text_58">
      <!-- 50 -->
      <g style="fill: #262626" transform="translate(358.545779 703.060938) scale(0.14 -0.14)">
       <use xlink:href="#ArialMT-35"/>
       <use xlink:href="#ArialMT-30" x="55.615234"/>
      </g>
     </g>
    </g>
    <g id="xtick_24">
     <g id="text_59">
      <!-- 100 -->
      <g style="fill: #262626" transform="translate(432.394728 703.060938) scale(0.14 -0.14)">
       <use xlink:href="#ArialMT-31"/>
       <use xlink:href="#ArialMT-30" x="55.615234"/>
       <use xlink:href="#ArialMT-30" x="111.230469"/>
      </g>
     </g>
    </g>
   </g>
   <g id="matplotlib.axis_16">
    <g id="ytick_29">
     <g id="text_60">
      <!-- 0 -->
      <g style="fill: #262626" transform="translate(264.229688 688.550469) scale(0.14 -0.14)">
       <use xlink:href="#ArialMT-30"/>
      </g>
     </g>
    </g>
    <g id="ytick_30">
     <g id="text_61">
      <!-- 50 -->
      <g style="fill: #262626" transform="translate(256.444375 637.082311) scale(0.14 -0.14)">
       <use xlink:href="#ArialMT-35"/>
       <use xlink:href="#ArialMT-30" x="55.615234"/>
      </g>
     </g>
    </g>
    <g id="ytick_31">
     <g id="text_62">
      <!-- 100 -->
      <g style="fill: #262626" transform="translate(248.659063 585.614152) scale(0.14 -0.14)">
       <use xlink:href="#ArialMT-31"/>
       <use xlink:href="#ArialMT-30" x="55.615234"/>
       <use xlink:href="#ArialMT-30" x="111.230469"/>
      </g>
     </g>
    </g>
    <g id="ytick_32">
     <g id="text_63">
      <!-- 150 -->
      <g style="fill: #262626" transform="translate(248.659063 534.145994) scale(0.14 -0.14)">
       <use xlink:href="#ArialMT-31"/>
       <use xlink:href="#ArialMT-35" x="55.615234"/>
       <use xlink:href="#ArialMT-30" x="111.230469"/>
      </g>
     </g>
    </g>
   </g>
   <g id="line2d_8">
    <path d="M 290.144318 683.54 
L 291.69915 683.54 
L 293.253982 683.54 
L 294.808814 683.54 
L 296.363647 683.54 
L 297.918479 683.54 
L 299.473311 683.54 
L 301.028143 683.54 
L 302.582975 683.54 
L 304.137807 683.54 
L 305.692639 683.54 
L 307.247471 683.54 
L 308.802303 683.54 
L 310.357136 683.54 
L 311.911968 683.54 
L 313.4668 683.54 
L 315.021632 683.54 
L 316.576464 683.54 
L 318.131296 683.54 
L 319.686128 683.54 
L 321.24096 683.54 
L 322.795792 683.54 
L 324.350624 683.54 
L 325.905457 683.54 
L 327.460289 683.54 
L 329.015121 683.54 
L 330.569953 683.54 
L 332.124785 683.54 
L 333.679617 683.54 
L 335.234449 683.54 
L 336.789281 683.54 
L 338.344113 683.54 
L 339.898946 683.54 
L 341.453778 683.54 
L 343.00861 683.54 
L 344.563442 683.54 
L 346.118274 683.54 
L 347.673106 683.54 
L 349.227938 683.54 
L 350.78277 683.54 
L 352.337602 683.54 
L 353.892434 683.54 
L 355.447267 683.54 
L 357.002099 683.54 
L 358.556931 683.54 
L 360.111763 683.54 
L 361.666595 683.54 
L 363.221427 683.54 
L 364.776259 683.54 
L 366.331091 683.54 
L 367.885923 683.54 
L 369.440756 683.54 
L 370.995588 683.54 
L 372.55042 683.54 
L 374.105252 683.54 
L 375.660084 683.54 
L 377.214916 683.54 
L 378.769748 683.54 
L 380.32458 683.54 
L 381.879412 683.54 
L 383.434244 683.54 
L 384.989077 683.54 
L 386.543909 683.54 
L 388.098741 683.54 
L 389.653573 683.54 
L 391.208405 683.54 
L 392.763237 683.54 
L 394.318069 683.54 
L 395.872901 683.54 
L 397.427733 683.54 
L 398.982566 683.54 
L 400.537398 683.54 
L 402.09223 683.54 
L 403.647062 683.54 
L 405.201894 683.54 
L 406.756726 683.54 
L 408.311558 683.54 
L 409.86639 683.54 
L 411.421222 683.54 
L 412.976054 683.54 
L 414.530887 683.54 
L 416.085719 683.54 
L 417.640551 683.54 
L 419.195383 683.54 
L 420.750215 683.54 
L 422.305047 683.54 
L 423.859879 683.54 
L 425.414711 683.54 
L 426.969543 683.54 
L 428.524376 683.54 
L 430.079208 683.54 
L 431.63404 683.54 
L 433.188872 683.54 
L 434.743704 683.54 
L 436.298536 683.54 
L 437.853368 683.54 
L 439.4082 683.54 
L 440.963032 683.54 
L 442.517864 683.54 
L 444.072697 683.54 
L 445.627529 683.54 
L 447.182361 683.54 
L 448.737193 683.54 
L 450.292025 683.54 
L 451.846857 683.54 
L 453.401689 683.54 
L 454.956521 683.54 
L 456.511353 683.54 
L 458.066186 683.54 
L 459.621018 683.54 
L 461.17585 683.54 
L 462.730682 683.54 
" clip-path="url(#p0beb5014b5)" style="fill: none; stroke: #4c72b0; stroke-width: 1.5; stroke-linecap: round"/>
   </g>
   <g id="patch_38">
    <path d="M 281.515 683.54 
L 281.515 502.372083 
" style="fill: none; stroke: #ffffff; stroke-width: 1.25; stroke-linejoin: miter; stroke-linecap: square"/>
   </g>
   <g id="patch_39">
    <path d="M 471.36 683.54 
L 471.36 502.372083 
" style="fill: none; stroke: #ffffff; stroke-width: 1.25; stroke-linejoin: miter; stroke-linecap: square"/>
   </g>
   <g id="patch_40">
    <path d="M 281.515 683.54 
L 471.36 683.54 
" style="fill: none; stroke: #ffffff; stroke-width: 1.25; stroke-linejoin: miter; stroke-linecap: square"/>
   </g>
   <g id="patch_41">
    <path d="M 281.515 502.372083 
L 471.36 502.372083 
" style="fill: none; stroke: #ffffff; stroke-width: 1.25; stroke-linejoin: miter; stroke-linecap: square"/>
   </g>
   <g id="text_64">
    <!-- Hive 7 -->
    <g style="fill: #262626" transform="translate(353.7625 496.372083) scale(0.16 -0.16)">
     <defs>
      <path id="ArialMT-37" d="M 303 3981 
L 303 4522 
L 3269 4522 
L 3269 4084 
Q 2831 3619 2401 2847 
Q 1972 2075 1738 1259 
Q 1569 684 1522 0 
L 944 0 
Q 953 541 1156 1306 
Q 1359 2072 1739 2783 
Q 2119 3494 2547 3981 
L 303 3981 
z
" transform="scale(0.015625)"/>
     </defs>
     <use xlink:href="#ArialMT-48"/>
     <use xlink:href="#ArialMT-69" x="72.216797"/>
     <use xlink:href="#ArialMT-76" x="94.433594"/>
     <use xlink:href="#ArialMT-65" x="144.433594"/>
     <use xlink:href="#ArialMT-20" x="200.048828"/>
     <use xlink:href="#ArialMT-37" x="227.832031"/>
    </g>
   </g>
  </g>
  <g id="axes_9">
   <g id="patch_42">
    <path d="M 517.195 683.54 
L 707.04 683.54 
L 707.04 502.372083 
L 517.195 502.372083 
z
" style="fill: #eaeaf2"/>
   </g>
   <g id="matplotlib.axis_17">
    <g id="xtick_25">
     <g id="text_65">
      <!-- 0 -->
      <g style="fill: #262626" transform="translate(520.37683 703.060938) scale(0.14 -0.14)">
       <use xlink:href="#ArialMT-30"/>
      </g>
     </g>
    </g>
    <g id="xtick_26">
     <g id="text_66">
      <!-- 50 -->
      <g style="fill: #262626" transform="translate(594.225779 703.060938) scale(0.14 -0.14)">
       <use xlink:href="#ArialMT-35"/>
       <use xlink:href="#ArialMT-30" x="55.615234"/>
      </g>
     </g>
    </g>
    <g id="xtick_27">
     <g id="text_67">
      <!-- 100 -->
      <g style="fill: #262626" transform="translate(668.074728 703.060938) scale(0.14 -0.14)">
       <use xlink:href="#ArialMT-31"/>
       <use xlink:href="#ArialMT-30" x="55.615234"/>
       <use xlink:href="#ArialMT-30" x="111.230469"/>
      </g>
     </g>
    </g>
   </g>
   <g id="matplotlib.axis_18">
    <g id="ytick_33">
     <g id="text_68">
      <!-- 0 -->
      <g style="fill: #262626" transform="translate(499.909688 688.550469) scale(0.14 -0.14)">
       <use xlink:href="#ArialMT-30"/>
      </g>
     </g>
    </g>
    <g id="ytick_34">
     <g id="text_69">
      <!-- 50 -->
      <g style="fill: #262626" transform="translate(492.124375 637.082311) scale(0.14 -0.14)">
       <use xlink:href="#ArialMT-35"/>
       <use xlink:href="#ArialMT-30" x="55.615234"/>
      </g>
     </g>
    </g>
    <g id="ytick_35">
     <g id="text_70">
      <!-- 100 -->
      <g style="fill: #262626" transform="translate(484.339063 585.614152) scale(0.14 -0.14)">
       <use xlink:href="#ArialMT-31"/>
       <use xlink:href="#ArialMT-30" x="55.615234"/>
       <use xlink:href="#ArialMT-30" x="111.230469"/>
      </g>
     </g>
    </g>
    <g id="ytick_36">
     <g id="text_71">
      <!-- 150 -->
      <g style="fill: #262626" transform="translate(484.339063 534.145994) scale(0.14 -0.14)">
       <use xlink:href="#ArialMT-31"/>
       <use xlink:href="#ArialMT-35" x="55.615234"/>
       <use xlink:href="#ArialMT-30" x="111.230469"/>
      </g>
     </g>
    </g>
   </g>
   <g id="line2d_9">
    <path d="M 525.824318 683.54 
L 527.37915 683.54 
L 528.933982 683.54 
L 530.488814 683.54 
L 532.043647 683.54 
L 533.598479 683.54 
L 535.153311 683.54 
L 536.708143 683.54 
L 538.262975 683.54 
L 539.817807 683.54 
L 541.372639 683.54 
L 542.927471 683.54 
L 544.482303 683.54 
L 546.037136 683.54 
L 547.591968 683.54 
L 549.1468 683.54 
L 550.701632 683.54 
L 552.256464 683.54 
L 553.811296 683.54 
L 555.366128 683.54 
L 556.92096 683.54 
L 558.475792 683.54 
L 560.030624 683.54 
L 561.585457 683.54 
L 563.140289 683.54 
L 564.695121 683.54 
L 566.249953 683.54 
L 567.804785 683.54 
L 569.359617 683.54 
L 570.914449 683.54 
L 572.469281 683.54 
L 574.024113 683.54 
L 575.578946 683.54 
L 577.133778 683.54 
L 578.68861 683.54 
L 580.243442 683.54 
L 581.798274 683.54 
L 583.353106 683.54 
L 584.907938 683.54 
L 586.46277 683.54 
L 588.017602 683.54 
L 589.572434 683.54 
L 591.127267 683.54 
L 592.682099 683.54 
L 594.236931 683.54 
L 595.791763 683.54 
L 597.346595 683.54 
L 598.901427 683.54 
L 600.456259 683.54 
L 602.011091 683.54 
L 603.565923 683.54 
L 605.120756 683.54 
L 606.675588 683.54 
L 608.23042 683.54 
L 609.785252 683.54 
L 611.340084 683.54 
L 612.894916 683.54 
L 614.449748 683.54 
L 616.00458 683.54 
L 617.559412 683.54 
L 619.114244 683.54 
L 620.669077 683.54 
L 622.223909 683.54 
L 623.778741 683.54 
L 625.333573 683.54 
L 626.888405 683.54 
L 628.443237 683.54 
L 629.998069 683.54 
L 631.552901 683.54 
L 633.107733 683.54 
L 634.662566 683.54 
L 636.217398 683.54 
L 637.77223 683.54 
L 639.327062 683.54 
L 640.881894 683.54 
L 642.436726 683.54 
L 643.991558 683.54 
L 645.54639 683.54 
L 647.101222 683.54 
L 648.656054 683.54 
L 650.210887 683.54 
L 651.765719 683.54 
L 653.320551 683.54 
L 654.875383 683.54 
L 656.430215 683.54 
L 657.985047 683.54 
L 659.539879 683.54 
L 661.094711 683.54 
L 662.649543 683.54 
L 664.204376 683.54 
L 665.759208 683.54 
L 667.31404 683.54 
L 668.868872 683.54 
L 670.423704 683.54 
L 671.978536 683.54 
L 673.533368 683.54 
L 675.0882 683.54 
L 676.643032 683.54 
L 678.197864 683.54 
L 679.752697 683.54 
L 681.307529 683.54 
L 682.862361 683.54 
L 684.417193 683.54 
L 685.972025 683.54 
L 687.526857 683.54 
L 689.081689 683.54 
L 690.636521 683.54 
L 692.191353 683.54 
L 693.746186 683.54 
L 695.301018 683.54 
L 696.85585 683.54 
L 698.410682 683.54 
" clip-path="url(#p2f5cd70a7d)" style="fill: none; stroke: #4c72b0; stroke-width: 1.5; stroke-linecap: round"/>
   </g>
   <g id="patch_43">
    <path d="M 517.195 683.54 
L 517.195 502.372083 
" style="fill: none; stroke: #ffffff; stroke-width: 1.25; stroke-linejoin: miter; stroke-linecap: square"/>
   </g>
   <g id="patch_44">
    <path d="M 707.04 683.54 
L 707.04 502.372083 
" style="fill: none; stroke: #ffffff; stroke-width: 1.25; stroke-linejoin: miter; stroke-linecap: square"/>
   </g>
   <g id="patch_45">
    <path d="M 517.195 683.54 
L 707.04 683.54 
" style="fill: none; stroke: #ffffff; stroke-width: 1.25; stroke-linejoin: miter; stroke-linecap: square"/>
   </g>
   <g id="patch_46">
    <path d="M 517.195 502.372083 
L 707.04 502.372083 
" style="fill: none; stroke: #ffffff; stroke-width: 1.25; stroke-linejoin: miter; stroke-linecap: square"/>
   </g>
   <g id="text_72">
    <!-- Hive 8 -->
    <g style="fill: #262626" transform="translate(589.4425 496.372083) scale(0.16 -0.16)">
     <defs>
      <path id="ArialMT-38" d="M 1131 2484 
Q 781 2613 612 2850 
Q 444 3088 444 3419 
Q 444 3919 803 4259 
Q 1163 4600 1759 4600 
Q 2359 4600 2725 4251 
Q 3091 3903 3091 3403 
Q 3091 3084 2923 2848 
Q 2756 2613 2416 2484 
Q 2838 2347 3058 2040 
Q 3278 1734 3278 1309 
Q 3278 722 2862 322 
Q 2447 -78 1769 -78 
Q 1091 -78 675 323 
Q 259 725 259 1325 
Q 259 1772 486 2073 
Q 713 2375 1131 2484 
z
M 1019 3438 
Q 1019 3113 1228 2906 
Q 1438 2700 1772 2700 
Q 2097 2700 2305 2904 
Q 2513 3109 2513 3406 
Q 2513 3716 2298 3927 
Q 2084 4138 1766 4138 
Q 1444 4138 1231 3931 
Q 1019 3725 1019 3438 
z
M 838 1322 
Q 838 1081 952 856 
Q 1066 631 1291 507 
Q 1516 384 1775 384 
Q 2178 384 2440 643 
Q 2703 903 2703 1303 
Q 2703 1709 2433 1975 
Q 2163 2241 1756 2241 
Q 1359 2241 1098 1978 
Q 838 1716 838 1322 
z
" transform="scale(0.015625)"/>
     </defs>
     <use xlink:href="#ArialMT-48"/>
     <use xlink:href="#ArialMT-69" x="72.216797"/>
     <use xlink:href="#ArialMT-76" x="94.433594"/>
     <use xlink:href="#ArialMT-65" x="144.433594"/>
     <use xlink:href="#ArialMT-20" x="200.048828"/>
     <use xlink:href="#ArialMT-38" x="227.832031"/>
    </g>
   </g>
  </g>
  <g id="text_73">
   <!-- Time (days) -->
   <g style="fill: #262626" transform="translate(318.07625 723.42) scale(0.16 -0.16)">
    <defs>
     <path id="ArialMT-54" d="M 1659 0 
L 1659 4041 
L 150 4041 
L 150 4581 
L 3781 4581 
L 3781 4041 
L 2266 4041 
L 2266 0 
L 1659 0 
z
" transform="scale(0.015625)"/>
     <path id="ArialMT-79" d="M 397 -1278 
L 334 -750 
Q 519 -800 656 -800 
Q 844 -800 956 -737 
Q 1069 -675 1141 -563 
Q 1194 -478 1313 -144 
Q 1328 -97 1363 -6 
L 103 3319 
L 709 3319 
L 1400 1397 
Q 1534 1031 1641 628 
Q 1738 1016 1872 1384 
L 2581 3319 
L 3144 3319 
L 1881 -56 
Q 1678 -603 1566 -809 
Q 1416 -1088 1222 -1217 
Q 1028 -1347 759 -1347 
Q 597 -1347 397 -1278 
z
" transform="scale(0.015625)"/>
     <path id="ArialMT-73" d="M 197 991 
L 753 1078 
Q 800 744 1014 566 
Q 1228 388 1613 388 
Q 2000 388 2187 545 
Q 2375 703 2375 916 
Q 2375 1106 2209 1216 
Q 2094 1291 1634 1406 
Q 1016 1563 777 1677 
Q 538 1791 414 1992 
Q 291 2194 291 2438 
Q 291 2659 392 2848 
Q 494 3038 669 3163 
Q 800 3259 1026 3326 
Q 1253 3394 1513 3394 
Q 1903 3394 2198 3281 
Q 2494 3169 2634 2976 
Q 2775 2784 2828 2463 
L 2278 2388 
Q 2241 2644 2061 2787 
Q 1881 2931 1553 2931 
Q 1166 2931 1000 2803 
Q 834 2675 834 2503 
Q 834 2394 903 2306 
Q 972 2216 1119 2156 
Q 1203 2125 1616 2013 
Q 2213 1853 2448 1751 
Q 2684 1650 2818 1456 
Q 2953 1263 2953 975 
Q 2953 694 2789 445 
Q 2625 197 2315 61 
Q 2006 -75 1616 -75 
Q 969 -75 630 194 
Q 291 463 197 991 
z
" transform="scale(0.015625)"/>
    </defs>
    <use xlink:href="#ArialMT-54"/>
    <use xlink:href="#ArialMT-69" x="57.333984"/>
    <use xlink:href="#ArialMT-6d" x="79.550781"/>
    <use xlink:href="#ArialMT-65" x="162.851562"/>
    <use xlink:href="#ArialMT-20" x="218.466797"/>
    <use xlink:href="#ArialMT-28" x="246.25"/>
    <use xlink:href="#ArialMT-64" x="279.550781"/>
    <use xlink:href="#ArialMT-61" x="335.166016"/>
    <use xlink:href="#ArialMT-79" x="390.78125"/>
    <use xlink:href="#ArialMT-73" x="440.78125"/>
    <use xlink:href="#ArialMT-29" x="490.78125"/>
   </g>
  </g>
  <g id="text_74">
   <!-- Total mites in hive -->
   <g style="fill: #262626" transform="translate(4.85625 423.575) rotate(-90) scale(0.16 -0.16)">
    <defs>
     <path id="ArialMT-6f" d="M 213 1659 
Q 213 2581 725 3025 
Q 1153 3394 1769 3394 
Q 2453 3394 2887 2945 
Q 3322 2497 3322 1706 
Q 3322 1066 3130 698 
Q 2938 331 2570 128 
Q 2203 -75 1769 -75 
Q 1072 -75 642 372 
Q 213 819 213 1659 
z
M 791 1659 
Q 791 1022 1069 705 
Q 1347 388 1769 388 
Q 2188 388 2466 706 
Q 2744 1025 2744 1678 
Q 2744 2294 2464 2611 
Q 2184 2928 1769 2928 
Q 1347 2928 1069 2612 
Q 791 2297 791 1659 
z
" transform="scale(0.015625)"/>
     <path id="ArialMT-68" d="M 422 0 
L 422 4581 
L 984 4581 
L 984 2938 
Q 1378 3394 1978 3394 
Q 2347 3394 2619 3248 
Q 2891 3103 3008 2847 
Q 3125 2591 3125 2103 
L 3125 0 
L 2563 0 
L 2563 2103 
Q 2563 2525 2380 2717 
Q 2197 2909 1863 2909 
Q 1613 2909 1392 2779 
Q 1172 2650 1078 2428 
Q 984 2206 984 1816 
L 984 0 
L 422 0 
z
" transform="scale(0.015625)"/>
    </defs>
    <use xlink:href="#ArialMT-54"/>
    <use xlink:href="#ArialMT-6f" x="49.958984"/>
    <use xlink:href="#ArialMT-74" x="105.574219"/>
    <use xlink:href="#ArialMT-61" x="133.357422"/>
    <use xlink:href="#ArialMT-6c" x="188.972656"/>
    <use xlink:href="#ArialMT-20" x="211.189453"/>
    <use xlink:href="#ArialMT-6d" x="238.972656"/>
    <use xlink:href="#ArialMT-69" x="322.273438"/>
    <use xlink:href="#ArialMT-74" x="344.490234"/>
    <use xlink:href="#ArialMT-65" x="372.273438"/>
    <use xlink:href="#ArialMT-73" x="427.888672"/>
    <use xlink:href="#ArialMT-20" x="477.888672"/>
    <use xlink:href="#ArialMT-69" x="505.671875"/>
    <use xlink:href="#ArialMT-6e" x="527.888672"/>
    <use xlink:href="#ArialMT-20" x="583.503906"/>
    <use xlink:href="#ArialMT-68" x="611.287109"/>
    <use xlink:href="#ArialMT-69" x="666.902344"/>
    <use xlink:href="#ArialMT-76" x="689.119141"/>
    <use xlink:href="#ArialMT-65" x="739.119141"/>
   </g>
  </g>
 </g>
 <defs>
  <clipPath id="p4c46d46ebc">
   <rect x="45.835" y="30.96" width="189.845" height="181.167917"/>
  </clipPath>
  <clipPath id="p1f9bc1e33f">
   <rect x="281.515" y="30.96" width="189.845" height="181.167917"/>
  </clipPath>
  <clipPath id="p97f679c82c">
   <rect x="517.195" y="30.96" width="189.845" height="181.167917"/>
  </clipPath>
  <clipPath id="p619a2ef86f">
   <rect x="45.835" y="266.666042" width="189.845" height="181.167917"/>
  </clipPath>
  <clipPath id="pa0462b1d44">
   <rect x="281.515" y="266.666042" width="189.845" height="181.167917"/>
  </clipPath>
  <clipPath id="pa37885f31b">
   <rect x="517.195" y="266.666042" width="189.845" height="181.167917"/>
  </clipPath>
  <clipPath id="p6bba62d96c">
   <rect x="45.835" y="502.372083" width="189.845" height="181.167917"/>
  </clipPath>
  <clipPath id="p0beb5014b5">
   <rect x="281.515" y="502.372083" width="189.845" height="181.167917"/>
  </clipPath>
  <clipPath id="p2f5cd70a7d">
   <rect x="517.195" y="502.372083" width="189.845" height="181.167917"/>
  </clipPath>
 </defs>
</svg>
